<svg width="223" height="364" viewBox="0 0 223 364" fill="none" xmlns="http://www.w3.org/2000/svg">
<ellipse cx="197.5" cy="162" rx="197.5" ry="202" fill="#ABB2FF" fill-opacity="0.17"/>
<g clip-path="url(#clip0)">
<path d="M125.631 117.204C124.616 110.746 117.319 105.622 112.339 107.332C106.236 106.246 99.8931 110.819 98.5975 117.204C98.1263 119.505 97.7842 123.842 97.7842 123.842L96.9597 134.834C97.7842 135.019 98.6872 135.199 99.6519 135.362C99.7416 134.282 99.8314 133.213 99.9211 132.657C99.9996 133.219 100.084 134.344 100.179 135.469C101.222 135.638 102.333 135.79 103.505 135.914C103.6 134.901 103.696 133.86 103.785 133.264C103.87 133.872 103.965 134.952 104.06 135.975C106.75 136.246 109.451 136.382 112.154 136.38C114.627 136.38 116.999 136.268 119.198 136.077C119.305 134.952 119.411 133.748 119.518 133.067C119.613 133.737 119.714 134.907 119.826 136.015C121.217 135.885 122.535 135.717 123.752 135.531C123.848 134.406 123.943 133.213 124.038 132.612C124.122 133.174 124.207 134.299 124.302 135.424C125.375 135.248 126.362 135.06 127.263 134.862L126.472 124.489C126.472 124.489 125.94 119.139 125.631 117.204Z" fill="#351D19"/>
<path d="M133.304 301.255C133.5 294.033 133.45 284.807 133.646 276.336H123.814C123.814 276.336 125.384 292.795 125.856 301.407L133.304 301.255Z" fill="#E4A57F"/>
<path d="M124.066 317.524C124.066 318.319 124.315 319.095 124.779 319.74C125.547 320.668 126.871 320.865 128.071 320.938C130.485 321.18 132.924 320.902 135.222 320.122C135.649 319.98 136.042 319.753 136.377 319.453C136.866 318.891 137.142 318.174 137.157 317.428C137.281 315.324 136.934 313.22 136.142 311.268C135.856 310.498 135.536 309.738 135.205 309.018C133.82 305.93 133.797 300.699 133.797 300.699C132.99 300.254 132.233 301.064 130.079 301.165C128.957 301.216 125.541 300.49 125.541 300.49C125.541 300.49 124.913 305.126 124.981 306.116C125.048 308.23 124.907 310.346 124.56 312.433C124.425 313.412 124.246 314.39 124.139 315.375C124.056 316.088 124.032 316.807 124.066 317.524Z" fill="#F9BB30"/>
<path d="M124.066 317.524C124.066 318.319 124.315 319.095 124.779 319.74C125.547 320.668 126.871 320.865 128.071 320.938C130.485 321.18 132.924 320.902 135.222 320.122C135.649 319.98 136.042 319.753 136.377 319.453C136.866 318.891 137.142 318.174 137.157 317.428C137.281 315.324 136.934 313.22 136.142 311.268C135.884 312.09 136.383 313.412 136.417 314.177C136.511 315.019 136.332 315.869 135.906 316.601C135.384 317.248 134.665 317.706 133.859 317.906C131.937 318.475 129.911 318.593 127.936 318.249C127.099 318.16 126.292 317.889 125.57 317.456C124.849 316.966 124.337 316.224 124.134 315.375C124.052 316.088 124.03 316.807 124.066 317.524Z" fill="white"/>
<path d="M132.003 301.188C132.004 300.695 131.829 300.218 131.509 299.844C130.924 299.394 130.198 299.17 129.462 299.214C129.083 299.18 128.701 299.226 128.34 299.349C127.583 299.647 127.392 300.429 127.342 301.104C127.248 302.298 127.318 303.5 127.549 304.676C127.585 304.988 127.708 305.284 127.903 305.531C128.316 305.885 128.84 306.084 129.383 306.093C130.505 306.206 132.031 305.891 132.188 304.833C132.261 303.615 132.199 302.392 132.003 301.188Z" fill="#F9BB30"/>
<path d="M132.889 310.841C131.251 309.53 129.069 309.187 126.994 308.895C127.51 308.495 128.125 308.245 128.772 308.169C129.928 307.954 131.109 307.911 132.277 308.039C130.763 306.784 128.852 306.11 126.888 306.138C128.249 304.955 130 304.32 131.801 304.355C130.398 303.802 128.91 303.497 127.404 303.455" stroke="white" stroke-width="0.43" stroke-linecap="round" stroke-linejoin="round"/>
<path d="M126.888 310.841C128.525 309.53 130.707 309.187 132.782 308.895C132.266 308.495 131.652 308.245 131.004 308.169C129.848 307.954 128.667 307.911 127.499 308.039C129.014 306.785 130.924 306.111 132.889 306.138C131.527 304.955 129.777 304.32 127.976 304.355C129.38 303.802 130.87 303.497 132.378 303.455" stroke="white" stroke-width="0.43" stroke-linecap="round" stroke-linejoin="round"/>
<path d="M90.4649 301.255C90.2686 294.033 90.3135 284.807 90.1228 276.336H99.9267C99.9267 276.336 98.3619 292.795 97.8908 301.407L90.4649 301.255Z" fill="#E4A57F"/>
<path d="M99.6799 317.524C99.6806 318.319 99.4313 319.095 98.9676 319.74C98.1993 320.668 96.8756 320.865 95.6754 320.938C93.261 321.18 90.8228 320.902 88.5243 320.122C88.0972 319.982 87.7038 319.754 87.3689 319.453C86.8785 318.891 86.6006 318.174 86.5837 317.428C86.4612 315.324 86.81 313.219 87.6045 311.268C87.8905 310.498 88.2102 309.738 88.5412 309.018C89.9265 305.93 89.9489 300.699 89.9489 300.699C90.7566 300.254 91.5137 301.064 93.6675 301.165C94.7892 301.216 98.2049 300.49 98.2049 300.49C98.2049 300.49 98.833 305.126 98.7657 306.116C98.6958 308.23 98.8368 310.346 99.1864 312.433C99.321 313.412 99.5005 314.39 99.607 315.375C99.6902 316.088 99.7146 316.807 99.6799 317.524Z" fill="#F9BB30"/>
<path d="M99.6799 317.524C99.6806 318.319 99.4313 319.095 98.9676 319.74C98.1993 320.668 96.8756 320.865 95.6754 320.938C93.261 321.18 90.8228 320.902 88.5243 320.122C88.0972 319.982 87.7038 319.754 87.3689 319.453C86.8785 318.891 86.6006 318.174 86.5837 317.428C86.4612 315.324 86.81 313.219 87.6045 311.268C87.8625 312.09 87.3633 313.412 87.3297 314.177C87.2336 315.018 87.4106 315.868 87.8345 316.601C88.3591 317.248 89.0797 317.706 89.8872 317.906C91.8071 318.475 93.8319 318.592 95.8044 318.249C96.6433 318.161 97.4529 317.89 98.1768 317.456C98.8961 316.965 99.4077 316.223 99.6126 315.375C99.694 316.088 99.7165 316.807 99.6799 317.524Z" fill="white"/>
<path d="M91.7437 301.188C91.7399 300.695 91.9154 300.217 92.2373 299.844C92.8203 299.395 93.545 299.171 94.2788 299.214C94.658 299.182 95.0397 299.228 95.4006 299.349C96.1577 299.647 96.3484 300.429 96.3989 301.104C96.4897 302.298 96.4199 303.5 96.1914 304.676C96.1571 304.99 96.0323 305.287 95.8324 305.531C95.4201 305.887 94.8959 306.086 94.3517 306.093C93.23 306.206 91.7101 305.891 91.5474 304.833C91.4718 303.615 91.5376 302.391 91.7437 301.188Z" fill="#F9BB30"/>
<path d="M90.8575 310.841C92.4953 309.53 94.677 309.187 96.7522 308.895C96.2361 308.495 95.6216 308.245 94.9743 308.169C93.8184 307.954 92.6374 307.911 91.4689 308.039C92.9796 306.784 94.886 306.108 96.8476 306.133C95.4857 304.95 93.7355 304.315 91.9344 304.349C93.337 303.796 94.8249 303.491 96.3316 303.449" stroke="white" stroke-width="0.43" stroke-linecap="round" stroke-linejoin="round"/>
<path d="M96.8476 310.841C95.2099 309.53 93.0281 309.187 90.9529 308.895C91.469 308.495 92.0836 308.245 92.7308 308.169C93.8867 307.954 95.0677 307.911 96.2362 308.039C94.725 306.785 92.819 306.109 90.8575 306.133C92.2179 304.951 93.9659 304.316 95.7651 304.349C94.3626 303.795 92.8747 303.491 91.3679 303.449" stroke="white" stroke-width="0.43" stroke-linecap="round" stroke-linejoin="round"/>
<path d="M71.3282 143.401C76.8023 142.804 96.0512 142.619 98.0366 142.523C100.218 142.416 101.368 142.956 103.298 143.879C100.314 148.576 101.335 151.569 95.9726 153.127C95.9726 153.127 76.2975 155.444 67.5872 152.058C63.908 149.245 67.2395 143.845 71.3282 143.401Z" fill="#E4A57F"/>
<path d="M89.2591 128.134C89.6853 128.224 90.4089 128.46 90.8463 128.511C91.0493 128.543 91.2568 128.525 91.4518 128.461C91.6469 128.396 91.8238 128.286 91.9681 128.14C92.1251 127.993 91.7942 127.391 91.6259 127.251C91.186 126.807 90.6362 126.489 90.0331 126.328C89.7305 126.257 89.423 126.208 89.1133 126.182C88.2741 125.975 87.4239 125.815 86.5669 125.704C85.8378 125.698 88.5524 127.982 89.2591 128.134Z" fill="#D3835B"/>
<path d="M87.5821 127.6C88.272 127.796 89.0123 127.875 89.719 128.027C90.1453 128.117 90.5435 128.331 90.9753 128.381C91.1695 128.42 91.3702 128.409 91.5593 128.35C91.7483 128.291 91.9197 128.186 92.0578 128.044C92.0981 128.009 92.1305 127.966 92.1527 127.917C92.1749 127.869 92.1864 127.816 92.1864 127.763C92.1864 127.709 92.1749 127.657 92.1527 127.608C92.1305 127.559 92.0981 127.516 92.0578 127.481C91.4718 126.999 90.7917 126.644 90.0611 126.441C89.7861 126.38 89.5066 126.343 89.2254 126.328C88.661 126.168 88.088 126.041 87.5092 125.946C87.1136 125.891 86.7325 125.759 86.3875 125.558C84.301 124.494 86.0061 127.15 87.5821 127.6Z" fill="#E4A57F"/>
<path d="M90.1733 119.606C90.2644 119.57 90.3629 119.557 90.4601 119.569C90.5574 119.58 90.6504 119.614 90.7312 119.67C90.8119 119.725 90.8779 119.8 90.9234 119.887C90.9689 119.974 90.9925 120.07 90.9922 120.169C91.3885 122.066 91.7848 123.964 92.1812 125.861C92.2007 125.963 92.2007 126.068 92.1812 126.171C92.1195 126.446 91.7942 126.548 91.525 126.598C90.0049 126.892 88.4663 127.08 86.9203 127.161C86.2826 127.21 85.6415 127.191 85.0077 127.104C84.5452 127.02 84.0881 126.907 83.6392 126.767L81.693 126.204C81.6369 126.191 81.5849 126.164 81.5416 126.126C81.4978 126.071 81.4723 126.004 81.4687 125.934L81.0985 123.122C80.9639 122.132 80.9022 121.935 81.8501 121.575C83.5733 120.922 85.3481 120.416 87.1558 120.062C88.1617 119.863 89.1675 119.711 90.1733 119.606Z" fill="#E4A57F"/>
<path d="M89.4946 120.5C89.6973 120.437 89.9145 120.437 90.1172 120.5C90.4369 120.647 90.5154 121.063 90.5547 121.406C90.6444 122.199 90.7285 122.992 90.8183 123.78C90.9248 124.753 91.2333 126.739 90.8183 126.728C90.6388 125.04 90.4481 123.352 90.2574 121.665C90.251 121.463 90.1868 121.268 90.0723 121.102C89.9798 121.017 89.8711 120.951 89.7525 120.908C89.634 120.866 89.5081 120.848 89.3825 120.855C88.5972 120.815 87.6101 121.097 86.8698 120.782C86.9371 120.63 87.8849 120.658 88.1149 120.635C88.5771 120.618 89.0379 120.573 89.4946 120.5Z" fill="#D3835B"/>
<path d="M89.7807 120.596C89.8807 120.576 89.9836 120.576 90.0836 120.596C90.3247 120.692 90.392 120.996 90.4201 121.254C90.5996 122.773 90.7622 124.286 90.908 125.805C90.9854 126.185 90.9362 126.581 90.7678 126.93C90.5978 127.127 90.3876 127.284 90.1514 127.392C89.9153 127.5 89.6587 127.555 89.3993 127.555C89.2673 127.588 89.1278 127.572 89.0067 127.51C88.8328 127.391 88.8441 127.138 88.8721 126.947C88.9899 126.051 89.0012 125.145 88.9057 124.247C88.888 123.827 88.7645 123.419 88.5468 123.06C88.2682 122.694 87.8719 122.435 87.4251 122.329C87.1679 122.273 86.9163 122.194 86.6735 122.092C86.5217 122.042 86.3925 121.94 86.3092 121.803C86.2259 121.666 86.1939 121.504 86.2189 121.346C86.2438 121.187 86.3242 121.043 86.4455 120.939C86.5668 120.834 86.7212 120.777 86.881 120.776C87.8401 120.647 88.8328 120.664 89.7807 120.596Z" fill="#E4A57F"/>
<path d="M88.9001 121.676C89.1046 121.611 89.3239 121.611 89.5283 121.676C89.848 121.822 89.9265 122.239 89.9658 122.582C90.0794 123.327 90.1431 124.078 90.1565 124.832C90.1565 126.519 89.5956 127.228 88.8721 127.24C88.6926 125.552 89.8312 124.517 89.6517 122.841C89.6473 122.64 89.585 122.444 89.4722 122.278C89.3788 122.192 89.2692 122.125 89.1498 122.082C89.0304 122.038 88.9036 122.019 88.7767 122.025C87.9971 121.991 87.01 122.272 86.2641 121.952C86.337 121.8 87.2624 121.918 87.4868 121.901C87.9619 121.854 88.4338 121.779 88.9001 121.676Z" fill="#D3835B"/>
<path d="M87.1783 127.076C87.0703 127.04 86.9697 126.985 86.881 126.913C86.5557 126.632 86.623 126.109 86.4211 125.732C86.3495 125.968 86.3544 126.221 86.435 126.455C86.5156 126.688 86.6678 126.89 86.8698 127.031C87.2823 127.301 87.7687 127.435 88.2607 127.414C88.4626 127.414 88.9674 127.414 89.0628 127.183C88.9674 127.144 88.816 127.183 88.715 127.228C88.5406 127.256 88.3643 127.269 88.1878 127.268C87.8428 127.263 87.5012 127.198 87.1783 127.076Z" fill="#D3835B"/>
<path d="M89.1469 121.879C89.3051 121.881 89.4591 121.93 89.59 122.019C89.7493 122.179 89.8468 122.39 89.8648 122.616C90.0821 123.846 90.0401 125.109 89.7414 126.323C89.71 126.498 89.6453 126.666 89.5507 126.818C89.2367 127.284 88.5636 127.301 88.0028 127.251C87.6518 127.241 87.3072 127.155 86.9932 126.998C86.8398 126.915 86.7152 126.787 86.6361 126.631C86.5569 126.475 86.5269 126.299 86.5501 126.126C86.5853 125.982 86.6685 125.855 86.7857 125.766C86.9371 125.653 87.1278 125.614 87.2905 125.513C87.4372 125.393 87.5538 125.241 87.6308 125.068C87.7078 124.895 87.743 124.706 87.7335 124.517C87.7441 124.017 87.616 123.524 87.3634 123.094C87.1166 122.666 84.4525 122.053 87.3634 121.969C87.8738 121.974 88.6085 121.839 89.1469 121.879Z" fill="#E4A57F"/>
<path d="M82.9998 126.688C83.4356 126.73 83.8731 126.628 84.2449 126.396C84.4243 126.279 84.6117 126.176 84.8058 126.086C84.9691 126.03 85.1386 125.994 85.3106 125.979C85.7088 125.923 86.107 125.878 86.5108 125.844C87.0997 125.833 87.6815 125.713 88.2271 125.49C88.3511 125.441 88.4627 125.366 88.5539 125.268C88.6451 125.171 88.7135 125.055 88.7543 124.928C87.7488 125.469 86.6307 125.765 85.4901 125.794C85.2808 125.789 85.0718 125.81 84.8675 125.856C84.3066 126.013 83.9589 126.576 83.4093 126.621C83.1882 126.613 82.9711 126.559 82.7721 126.462C82.5731 126.365 82.3965 126.228 82.2539 126.058C82.181 125.991 82.0912 125.912 81.9903 125.929C81.8837 126.086 82.2483 126.39 82.3548 126.491C82.5501 126.61 82.7718 126.678 82.9998 126.688Z" fill="#D3835B"/>
<path d="M81.3116 121.794C80.638 121.996 80.0263 122.366 79.5337 122.869C77.1051 126.013 71.0029 135.07 68.9221 139.829C66.8413 144.588 63.4425 150.427 69.483 152.457C69.483 152.457 73.9699 154.145 76.2975 146.872C78.9055 138.653 76.6901 137.207 82.2314 126.328C82.7755 125.265 81.3116 121.794 81.3116 121.794Z" fill="#E4A57F"/>
<path d="M74.8785 129.641C69.6793 137.517 63.1003 149.386 67.5872 151.99" stroke="#D18D5E" stroke-width="0.29" stroke-miterlimit="10"/>
<path d="M142.373 175.026C142.424 177.956 140.231 181.618 138.66 182.04C133.455 183.441 130.673 174.452 129.193 165.547C128.918 163.922 128.688 162.313 128.497 160.755C128.464 160.485 128.436 160.192 128.396 159.944C128.346 159.455 128.29 158.971 128.239 158.493C128.127 157.458 128.032 156.479 127.953 155.557C127.667 152.277 127.561 149.892 127.533 149.42C127.392 147.552 129.54 146.174 130.898 143.311C133.495 145.938 136.389 152.733 138.615 159.466C140.791 165.98 142.323 172.432 142.373 175.026Z" fill="#E4A57F"/>
<g style="mix-blend-mode:multiply" opacity="0.2">
<g style="mix-blend-mode:multiply" opacity="0.2">
<path d="M142.373 175.026C142.424 177.956 140.231 181.618 138.66 182.04C133.455 183.441 130.673 174.452 129.193 165.547C128.918 163.922 128.688 162.313 128.497 160.755C128.464 160.485 128.436 160.192 128.396 159.944C128.346 159.455 128.29 158.971 128.239 158.493C128.127 157.458 128.032 156.479 127.953 155.557C127.667 152.277 127.561 149.892 127.533 149.42C127.392 147.552 129.54 146.174 130.898 143.311C133.495 145.938 136.389 152.733 138.615 159.466C140.791 165.98 142.323 172.432 142.373 175.026Z" fill="#E4A57F"/>
</g>
</g>
<path d="M140.186 158.471L138.626 159.466L129.193 165.547L128.632 165.907C128.632 165.907 128.34 163.995 128.121 162.436C128.121 162.256 128.077 162.082 128.054 161.919C127.998 161.548 127.964 161.216 127.931 160.963L127.667 162.65C126.854 168.107 125.356 178.738 125.356 178.738L126.13 182.946C126.276 183.745 126.433 184.634 126.596 185.494C127.286 189.297 128.015 193.341 128.026 193.583H95.4959C95.4959 193.302 96.2138 189.302 96.87 185.573C97.027 184.679 97.1841 183.795 97.3243 182.98L97.9693 179.115C97.9693 179.115 96.6905 170.931 95.5856 164.057C94.9911 160.4 94.4639 157.121 94.1779 155.619L94.1442 155.45H93.2692H93.2132C88.3505 155.349 85.6303 155.101 86.0004 155.067L84.9404 141.674C84.9404 141.674 91.783 140.982 94.1666 140.83C96.9205 140.667 105.384 140.217 105.692 140.2C105.731 140.475 105.827 140.74 105.973 140.976C108.962 144.43 114.605 143.975 117.701 140.476C117.701 140.476 117.701 140.397 117.661 140.251H118.054C119.737 140.16 121.425 140.199 123.102 140.369C124.911 140.542 126.693 140.935 128.407 141.539C131.199 142.357 133.56 144.239 134.986 146.782C137.064 150.514 138.804 154.426 140.186 158.471Z" fill="#FFBDC3"/>
<path d="M105.67 140.324C105.67 140.324 105.401 145.561 111.699 145.814C117.841 146 118.16 140.751 118.16 140.751C118.16 140.751 118.121 140.419 118.06 139.863C118.015 139.491 117.975 139.12 117.931 138.737L117.897 138.411C117.835 137.849 117.779 137.348 117.717 136.831L117.633 136.251C117.633 136.082 117.594 135.919 117.577 135.75C117.544 135.497 117.521 135.244 117.487 134.985C117.49 134.94 117.49 134.895 117.487 134.85C117.33 133.545 117.179 132.246 117.061 131.233C117.066 131.198 117.066 131.162 117.061 131.127C117.011 130.716 116.971 130.35 116.932 130.063C116.932 129.973 116.932 129.889 116.899 129.816C116.899 129.642 116.859 129.495 116.842 129.388C114.083 129.917 107.022 131.447 107.022 131.447L106.248 136.982L105.67 140.324Z" fill="#E4A57F"/>
<g style="mix-blend-mode:multiply" opacity="0.2">
<path d="M118.043 139.862C115.508 140.512 112.843 140.44 110.348 139.654C109.251 139.266 108.227 138.695 107.319 137.967C106.942 137.657 106.584 137.325 106.248 136.971L107.005 131.436C107.005 131.436 114.055 129.906 116.82 129.383C116.994 130.513 117.527 135.323 118.043 139.862Z" fill="#E4A57F"/>
</g>
<path d="M120.752 130.063C119.82 131.612 118.497 132.887 116.916 133.759C115.335 134.63 113.553 135.067 111.75 135.025C108.233 134.895 104.066 133.258 102.613 129.366C99.4556 120.928 102.451 115.404 102.916 112.738L121.75 112.918C121.75 112.918 124.33 123.982 120.752 130.063Z" fill="#E4A57F"/>
<path d="M105.984 119.314C106.276 119.18 106.591 119.109 106.912 119.103C107.232 119.097 107.55 119.157 107.846 119.28C108.033 119.342 108.2 119.455 108.327 119.606C108.455 119.757 108.539 119.94 108.57 120.135C108.576 120.189 108.568 120.245 108.547 120.295C108.525 120.345 108.49 120.389 108.446 120.422C108.385 120.452 108.318 120.465 108.25 120.461C107.689 120.461 107.184 120.399 106.657 120.461C106.231 120.495 105.814 120.608 105.429 120.793C105.227 120.883 104.386 121.187 104.868 120.377C105.109 119.906 105.503 119.531 105.984 119.314Z" fill="#351D19"/>
<path d="M117.925 119.735C117.643 119.582 117.333 119.488 117.014 119.46C116.694 119.432 116.372 119.47 116.068 119.572C115.879 119.622 115.707 119.722 115.57 119.863C115.434 120.004 115.338 120.18 115.294 120.371C115.282 120.425 115.284 120.481 115.301 120.533C115.318 120.586 115.348 120.633 115.39 120.669C115.45 120.703 115.517 120.721 115.586 120.72C116.113 120.765 116.652 120.72 117.179 120.815C117.6 120.883 118.007 121.023 118.379 121.232C118.57 121.344 119.394 121.704 118.996 120.866C118.778 120.378 118.4 119.979 117.925 119.735Z" fill="#351D19"/>
<path d="M106.41 122.638C106.448 122.73 106.504 122.813 106.574 122.882C106.645 122.952 106.728 123.006 106.82 123.043C106.995 123.139 107.198 123.172 107.394 123.138C107.591 123.103 107.77 123.002 107.902 122.852C108.009 122.729 108.079 122.579 108.104 122.419C108.13 122.259 108.11 122.094 108.047 121.945C107.983 121.795 107.88 121.666 107.747 121.573C107.614 121.48 107.458 121.426 107.297 121.417C106.696 121.322 106.225 122.081 106.41 122.638Z" fill="#351D19"/>
<path d="M115.67 122.964C115.708 123.056 115.764 123.139 115.834 123.208C115.904 123.278 115.988 123.333 116.08 123.369C116.254 123.465 116.456 123.498 116.652 123.463C116.847 123.428 117.025 123.328 117.157 123.178C117.265 123.057 117.337 122.907 117.364 122.746C117.391 122.586 117.372 122.421 117.309 122.27C117.246 122.12 117.142 121.991 117.009 121.898C116.876 121.804 116.719 121.751 116.556 121.744C115.956 121.626 115.485 122.407 115.67 122.964Z" fill="#351D19"/>
<g style="mix-blend-mode:multiply">
<path d="M111.873 121.749C111.876 122.474 111.713 123.19 111.396 123.842C111.239 124.13 111.103 124.429 110.987 124.736C110.954 124.845 110.947 124.961 110.966 125.073C110.984 125.186 111.028 125.292 111.094 125.385C111.16 125.478 111.247 125.554 111.347 125.609C111.447 125.663 111.558 125.694 111.671 125.698C112.06 125.715 112.442 125.586 112.743 125.338" stroke="#E9B0A7" stroke-width="0.62" stroke-linecap="round" stroke-linejoin="round"/>
</g>
<g style="mix-blend-mode:multiply" opacity="0.3">
<g style="mix-blend-mode:multiply" opacity="0.3">
<path d="M119.647 124.028C119.999 124.174 120.305 124.414 120.531 124.723C120.756 125.031 120.893 125.396 120.926 125.777C120.968 126.203 120.901 126.633 120.733 127.027C120.564 127.42 120.298 127.764 119.961 128.027C119.59 128.313 119.151 128.496 118.687 128.557C118.223 128.619 117.751 128.556 117.319 128.376C116.981 128.21 116.692 127.959 116.48 127.647C116.267 127.336 116.139 126.974 116.108 126.598C116.096 126.195 116.168 125.793 116.319 125.418C116.469 125.044 116.695 124.704 116.983 124.421C117.364 124.15 117.805 123.973 118.268 123.904C118.731 123.836 119.203 123.878 119.647 124.028Z" fill="#E4A57F"/>
</g>
<g style="mix-blend-mode:multiply" opacity="0.3">
<path d="M106.349 123.729C106.702 123.874 107.008 124.114 107.234 124.423C107.46 124.732 107.596 125.097 107.627 125.479C107.671 125.905 107.606 126.336 107.437 126.73C107.268 127.123 107.001 127.467 106.663 127.729C106.288 128.006 105.846 128.179 105.383 128.229C104.92 128.279 104.452 128.206 104.027 128.016C103.687 127.851 103.396 127.601 103.183 127.289C102.969 126.977 102.841 126.615 102.81 126.238C102.801 125.836 102.875 125.436 103.025 125.063C103.176 124.689 103.4 124.351 103.685 124.067C104.071 123.804 104.513 123.637 104.976 123.578C105.439 123.519 105.909 123.571 106.349 123.729Z" fill="#E4A57F"/>
</g>
</g>
<g style="mix-blend-mode:multiply">
<path d="M110.095 127.38C110.587 127.723 111.17 127.911 111.769 127.921C112.368 127.931 112.957 127.763 113.46 127.436" stroke="#E9B0A7" stroke-width="0.62" stroke-linecap="round" stroke-linejoin="round"/>
</g>
<path d="M103.314 114.735C102.967 114.572 102.411 113.497 102.153 113.778C101.217 114.802 101.032 117.559 100.83 118.931C100.584 120.396 100.694 121.899 101.149 123.313C101.346 123.836 101.94 125.001 102.574 124.438C103.208 123.876 103.578 114.875 103.314 114.735Z" fill="#351D19"/>
<path d="M120.819 112.861C121.167 112.698 121.565 112.963 121.823 113.25C122.754 114.273 123.371 117.53 123.545 118.909C123.784 120.37 123.667 121.868 123.203 123.274C123.006 123.802 122.406 124.933 121.778 124.371C121.15 123.808 120.578 112.974 120.819 112.861Z" fill="#351D19"/>
<path d="M121.06 123.133C121.621 121.232 122.905 120.247 124.386 120.32C124.599 120.322 124.809 120.368 125.003 120.455C125.183 120.557 125.338 120.697 125.457 120.866C125.971 121.663 126.2 122.611 126.108 123.555C126.143 124.424 125.914 125.283 125.452 126.019C125.21 126.352 124.894 126.625 124.529 126.815C124.164 127.005 123.76 127.108 123.348 127.114C122.937 127.121 122.53 127.031 122.159 126.853C121.788 126.674 121.464 126.412 121.212 126.086L121.06 123.133Z" fill="#E4A57F"/>
<g style="mix-blend-mode:multiply">
<g style="mix-blend-mode:multiply">
<path d="M122.675 125.676C122.846 125.157 123.121 124.678 123.483 124.269C123.851 123.858 124.344 123.579 124.885 123.476" stroke="#E9B0A7" stroke-width="0.62" stroke-linecap="round" stroke-linejoin="round"/>
</g>
<g style="mix-blend-mode:multiply">
<path d="M123.427 122.689C123.323 122.928 123.28 123.19 123.302 123.451C123.325 123.711 123.412 123.962 123.556 124.179" stroke="#E9B0A7" stroke-width="0.62" stroke-linecap="round" stroke-linejoin="round"/>
</g>
</g>
<path d="M103.331 122.503C102.916 120.574 101.48 119.488 99.966 119.471C99.7545 119.458 99.5427 119.489 99.3435 119.561C99.1576 119.651 98.9932 119.779 98.8611 119.938C98.293 120.698 97.9967 121.627 98.0198 122.576C97.9382 123.438 98.116 124.304 98.5302 125.063C98.7478 125.412 99.0434 125.707 99.3939 125.922C99.7443 126.138 100.14 126.269 100.549 126.305C100.959 126.341 101.371 126.281 101.754 126.13C102.136 125.979 102.479 125.74 102.754 125.434L103.331 122.503Z" fill="#E4A57F"/>
<g style="mix-blend-mode:multiply">
<g style="mix-blend-mode:multiply">
<path d="M101.335 124.916C101.204 124.387 100.965 123.891 100.633 123.459C100.292 123.027 99.8228 122.713 99.293 122.565" stroke="#E9B0A7" stroke-width="0.62" stroke-linecap="round" stroke-linejoin="round"/>
</g>
<g style="mix-blend-mode:multiply">
<path d="M100.774 121.89C100.862 122.135 100.888 122.399 100.848 122.656C100.807 122.914 100.703 123.157 100.544 123.364" stroke="#E9B0A7" stroke-width="0.62" stroke-linecap="round" stroke-linejoin="round"/>
</g>
</g>
<path d="M112.232 107.754L101.957 112.816L103.185 118.712C104.948 118.358 106.739 118.17 108.536 118.149C108.605 117.236 108.746 116.329 108.957 115.438C109.009 116.355 109.14 117.266 109.349 118.16C110.824 118.16 112.372 118.16 113.836 118.205C113.927 117.008 114.188 115.83 114.61 114.706C114.495 115.89 114.557 117.085 114.795 118.25C116.944 118.291 119.084 118.528 121.189 118.959L122.131 112.822L112.232 107.754Z" fill="#351D19"/>
<g style="mix-blend-mode:multiply" opacity="0.3">
<path d="M115.838 169.44C121.537 169.44 114.464 171.223 111.531 171.262C108.222 171.307 102.591 169.575 107.044 169.575C109.854 169.558 112.827 169.44 115.838 169.44Z" fill="#FFBDC3"/>
</g>
<g style="mix-blend-mode:multiply" opacity="0.3">
<path d="M97.7338 167.499C98.4965 166.183 101.738 169.254 103.185 168.011C101.733 166.807 99.3771 164.422 97.9301 163.218C97.1726 162.611 96.4568 161.953 95.7876 161.25C95.0528 158.184 94.4247 155.849 94.2003 155.517C94.2003 155.517 94.2003 155.585 94.2003 155.624C94.9911 159.922 97.9693 179.121 97.9693 179.121C97.9693 179.121 95.5071 193.066 95.4679 193.628H96.0287C96.8738 190.939 97.5861 188.217 98.1656 185.46C98.7013 183.154 99.0298 180.805 99.1471 178.44C99.1471 177.36 98.5358 173.822 97.7057 169.834C97.6328 168.934 97.5655 167.78 97.7338 167.499Z" fill="#FFBDC3"/>
</g>
<g style="mix-blend-mode:multiply" opacity="0.3">
<path d="M128.396 159.944C128.346 160.423 128.284 160.946 128.228 161.491C128.189 161.801 128.155 162.121 128.116 162.436C128.116 162.256 128.071 162.082 128.049 161.919C127.992 161.548 127.959 161.216 127.925 160.963L127.662 162.65C126.848 168.107 125.351 178.738 125.351 178.738L126.125 182.946C126.271 183.745 126.428 184.634 126.59 185.494C127.28 189.297 128.009 193.341 128.02 193.583H126.125C125.564 191.558 125.003 189.511 124.594 187.446C124.459 186.799 124.33 186.152 124.212 185.5C124.055 184.645 123.926 183.812 123.831 182.918C123.735 182.023 123.663 181.258 123.64 180.42C123.601 179.076 124.605 173.884 125.727 168.782C125.779 168.343 125.746 167.898 125.631 167.471C124.868 166.16 121.627 169.232 120.18 167.983C120.252 167.927 120.325 167.865 120.404 167.792C121.862 166.548 124.061 164.338 125.452 163.19C126.162 162.621 126.838 162.011 127.476 161.362C127.779 160.153 128.037 159.146 128.256 158.465C128.335 158.14 128.449 157.825 128.598 157.526C128.576 158.335 128.508 159.143 128.396 159.944Z" fill="#FFBDC3"/>
</g>
<path d="M128.497 160.755C128.419 161.008 128.323 161.255 128.228 161.491C128.172 161.638 128.105 161.778 128.049 161.919C127.925 162.178 127.802 162.425 127.662 162.678C127.41 163.151 127.121 163.602 126.798 164.028C125.536 165.716 122.311 167.111 120.404 167.82C119.529 168.152 118.934 168.337 118.934 168.343L120.14 157.183L127.953 155.557L129.075 155.321C129.075 155.551 129.114 155.771 129.125 156.001V156.035C129.213 157.634 129 159.235 128.497 160.755Z" fill="#FFBDC3"/>
<path d="M103.443 168.343C103.443 168.343 97.414 166.492 95.5912 164.028C93.7663 161.516 92.9441 158.41 93.2861 155.321L102.456 156.046L103.443 168.343Z" fill="#FFBDC3"/>
<path d="M94.0432 150.697C93.5812 152.303 93.3157 153.959 93.2524 155.63C93.0746 154.815 92.7536 154.038 92.3046 153.335" stroke="#F27789" stroke-width="0.47" stroke-linecap="round" stroke-linejoin="round"/>
<path d="M128.357 150.629C128.819 152.235 129.085 153.892 129.148 155.562C129.326 154.747 129.647 153.97 130.096 153.267" stroke="#F27789" stroke-width="0.47" stroke-linecap="round" stroke-linejoin="round"/>
<path d="M129.148 155.562C129.148 155.562 129.181 158.285 128.587 159.905" stroke="#F27789" stroke-width="0.47" stroke-linecap="round" stroke-linejoin="round"/>
<path d="M99.2369 293.684C99.2369 294.196 99.1808 294.708 99.1135 295.214C99.0973 295.702 98.9174 296.169 98.6031 296.542C98.3896 296.719 98.1275 296.826 97.8515 296.851C97.6653 296.871 97.478 296.88 97.2907 296.879C95.1257 296.879 93.7348 296.806 91.3343 296.609C90.91 296.609 90.4993 296.459 90.1733 296.187C90.1271 296.129 90.0841 296.069 90.0443 296.007L89.9377 295.805L89.8536 295.585C89.6668 294.85 89.6343 294.084 89.7582 293.335C89.79 293.031 89.8387 292.728 89.9041 292.43L93.073 292.503H93.2076C93.3702 292.503 93.5385 292.503 93.7067 292.503H93.8245H94.3461H94.4359H95.2884H95.6417H96.2026H97.3916C97.7949 292.476 98.1992 292.532 98.5807 292.666C98.7516 292.734 98.9025 292.845 99.0192 292.987C99.1359 293.13 99.2147 293.3 99.2481 293.481C99.2635 293.549 99.2596 293.619 99.2369 293.684Z" fill="#FF888E"/>
<g style="mix-blend-mode:multiply" opacity="0.2">
<path d="M99.2369 293.684C99.2369 294.196 99.1808 294.708 99.1135 295.214C99.0973 295.702 98.9174 296.169 98.6031 296.542C98.3896 296.719 98.1275 296.826 97.8515 296.851C97.6653 296.871 97.478 296.88 97.2907 296.879C95.1257 296.879 93.7348 296.806 91.3343 296.609C90.91 296.609 90.4993 296.459 90.1733 296.187C90.1271 296.129 90.0841 296.069 90.0443 296.007L89.9377 295.805L89.8536 295.585C89.651 294.854 89.592 294.089 89.6797 293.335C89.7012 293.028 89.7405 292.721 89.7975 292.418L93.073 292.508H93.2076C93.3702 292.508 93.5385 292.508 93.7067 292.508H93.8245H94.3461H94.4359H95.2884H95.6417H96.2026H97.3916C97.7949 292.482 98.1992 292.538 98.5807 292.671C98.7516 292.74 98.9025 292.85 99.0192 292.993C99.1359 293.136 99.2147 293.306 99.2481 293.487C99.2624 293.552 99.2585 293.621 99.2369 293.684Z" fill="#FF888E"/>
</g>
<path d="M90.7117 292.453L90.4762 293.797C90.4313 294.062 90.3808 294.326 90.3416 294.591C90.2417 295.278 90.1892 295.972 90.1845 296.666" stroke="#EF4D5D" stroke-width="0.22" stroke-linecap="round" stroke-linejoin="round"/>
<path d="M91.5643 292.446C91.4969 292.896 91.4353 293.346 91.3679 293.796C91.3287 294.061 91.2894 294.325 91.2558 294.59C91.1691 295.292 91.1185 295.997 91.1043 296.705" stroke="#EF4D5D" stroke-width="0.22" stroke-linecap="round" stroke-linejoin="round"/>
<path d="M92.4167 292.446C92.3607 292.896 92.3102 293.346 92.2597 293.796C92.2597 294.061 92.198 294.325 92.1756 294.59C92.1027 295.281 92.041 296.047 92.0241 296.744" stroke="#EF4D5D" stroke-width="0.22" stroke-linecap="round" stroke-linejoin="round"/>
<path d="M93.2637 292.441C93.23 292.896 93.1908 293.346 93.1515 293.796C93.1515 294.061 93.1066 294.325 93.0898 294.59C93.0337 295.282 92.9664 296.086 92.944 296.778" stroke="#EF4D5D" stroke-width="0.22" stroke-linecap="round" stroke-linejoin="round"/>
<path d="M94.1162 292.441C94.1162 292.891 94.0713 293.341 94.0433 293.791C94.0433 294.061 94.0433 294.325 94.004 294.59C93.9647 295.282 93.8918 296.12 93.8694 296.84" stroke="#EF4D5D" stroke-width="0.22" stroke-linecap="round" stroke-linejoin="round"/>
<path d="M94.9687 292.441L94.935 293.791V294.59C94.935 295.282 94.8341 296.159 94.806 296.84" stroke="#EF4D5D" stroke-width="0.22" stroke-linecap="round" stroke-linejoin="round"/>
<path d="M95.8212 292.435C95.8212 292.891 95.8212 293.341 95.8212 293.791C95.8212 294.061 95.8212 294.325 95.8212 294.59C95.8212 295.281 95.7315 296.198 95.6978 296.89" stroke="#EF4D5D" stroke-width="0.22" stroke-linecap="round" stroke-linejoin="round"/>
<path d="M96.6681 292.435L96.7186 293.791C96.7186 294.055 96.7186 294.325 96.7186 294.59C96.7186 295.281 96.6401 296.232 96.6008 296.924" stroke="#EF4D5D" stroke-width="0.22" stroke-linecap="round" stroke-linejoin="round"/>
<path d="M97.5206 292.43C97.5543 292.885 97.5823 293.335 97.6104 293.791C97.6104 294.055 97.6496 294.325 97.6608 294.59C97.6945 295.287 97.5935 296.277 97.5487 296.963" stroke="#EF4D5D" stroke-width="0.22" stroke-linecap="round" stroke-linejoin="round"/>
<path d="M98.3731 292.43C98.418 292.885 98.4629 293.335 98.5021 293.791C98.5021 294.055 98.5582 294.325 98.575 294.59C98.589 295.395 98.5553 296.201 98.4741 297.003" stroke="#EF4D5D" stroke-width="0.22" stroke-linecap="round" stroke-linejoin="round"/>
<path d="M133.865 296.108C133.792 296.27 133.695 296.42 133.579 296.553C133.243 296.809 132.828 296.939 132.406 296.918C130.589 296.98 129.355 297.003 127.92 296.963C127.454 296.963 126.966 296.935 126.428 296.913C125.958 296.94 125.494 296.796 125.121 296.508C124.83 296.118 124.672 295.645 124.672 295.158C124.629 294.649 124.614 294.138 124.627 293.628C124.624 293.6 124.624 293.571 124.627 293.543C124.661 293.355 124.745 293.18 124.871 293.036C124.996 292.893 125.158 292.786 125.34 292.728C125.74 292.613 126.16 292.58 126.573 292.632H127H127.179H127.493H128.054H128.357H128.918C131.251 292.7 134.022 292.761 134.022 292.761C134.022 292.761 134.055 292.953 134.095 293.262C134.248 294.216 134.169 295.192 133.865 296.108Z" fill="#FF888E"/>
<g style="mix-blend-mode:multiply" opacity="0.2">
<path d="M133.865 296.108C133.792 296.27 133.695 296.42 133.579 296.553C133.243 296.809 132.828 296.939 132.406 296.918C130.589 296.98 129.355 297.003 127.92 296.963C127.454 296.963 126.966 296.935 126.428 296.913C125.958 296.94 125.494 296.796 125.121 296.508C124.83 296.118 124.672 295.645 124.672 295.158C124.629 294.649 124.614 294.138 124.627 293.628C124.624 293.6 124.624 293.571 124.627 293.543C124.661 293.355 124.745 293.18 124.871 293.036C124.996 292.893 125.158 292.786 125.34 292.728C125.74 292.613 126.16 292.58 126.573 292.632H127H127.179H127.493H128.054H128.357H128.918C131.29 292.694 134.128 292.745 134.128 292.745C134.154 292.912 134.171 293.081 134.179 293.251C134.301 294.215 134.193 295.194 133.865 296.108Z" fill="#FF888E"/>
</g>
<path d="M133.22 292.795C133.276 293.245 133.332 293.701 133.394 294.151C133.427 294.415 133.461 294.685 133.483 294.95C133.553 295.641 133.576 296.336 133.551 297.031" stroke="#EF4D5D" stroke-width="0.22" stroke-linecap="round" stroke-linejoin="round"/>
<path d="M132.367 292.75L132.502 294.106C132.502 294.376 132.552 294.64 132.575 294.905C132.628 295.61 132.645 296.318 132.625 297.025" stroke="#EF4D5D" stroke-width="0.22" stroke-linecap="round" stroke-linejoin="round"/>
<path d="M131.52 292.711C131.548 293.161 131.576 293.611 131.61 294.066L131.661 294.865C131.694 295.557 131.722 296.322 131.705 297.02" stroke="#EF4D5D" stroke-width="0.22" stroke-linecap="round" stroke-linejoin="round"/>
<path d="M130.668 292.666L130.718 294.021C130.718 294.286 130.718 294.556 130.718 294.82C130.718 295.512 130.769 296.317 130.758 297.014" stroke="#EF4D5D" stroke-width="0.22" stroke-linecap="round" stroke-linejoin="round"/>
<path d="M129.815 292.632C129.815 293.088 129.815 293.538 129.815 293.988C129.815 294.258 129.815 294.522 129.815 294.786C129.815 295.478 129.855 296.322 129.815 297.037" stroke="#EF4D5D" stroke-width="0.22" stroke-linecap="round" stroke-linejoin="round"/>
<path d="M128.968 292.581L128.935 293.937V294.736C128.935 295.422 128.935 296.305 128.935 296.986" stroke="#EF4D5D" stroke-width="0.22" stroke-linecap="round" stroke-linejoin="round"/>
<path d="M128.116 292.536L128.043 293.892C128.043 294.156 128.015 294.421 128.004 294.691C127.97 295.383 128.004 296.294 128.004 296.992" stroke="#EF4D5D" stroke-width="0.22" stroke-linecap="round" stroke-linejoin="round"/>
<path d="M127.269 292.497L127.151 293.847C127.151 294.111 127.106 294.381 127.089 294.646C127.045 295.338 127.089 296.288 127.089 296.986" stroke="#EF4D5D" stroke-width="0.22" stroke-linecap="round" stroke-linejoin="round"/>
<path d="M126.416 292.452L126.265 293.808C126.231 294.072 126.203 294.336 126.175 294.601C126.114 295.293 126.175 296.288 126.175 296.98" stroke="#EF4D5D" stroke-width="0.22" stroke-linecap="round" stroke-linejoin="round"/>
<path d="M125.57 292.407C125.502 292.863 125.435 293.313 125.373 293.763C125.334 294.027 125.295 294.291 125.261 294.561C125.213 295.363 125.213 296.167 125.261 296.969" stroke="#EF4D5D" stroke-width="0.22" stroke-linecap="round" stroke-linejoin="round"/>
<path d="M134.386 293.268L134.196 293.301H134.111C132.872 293.47 129.849 293.583 127.347 293.588C126.31 293.588 125.356 293.588 124.661 293.532C124.448 293.532 124.263 293.504 124.1 293.487C122.647 293.757 115.255 243.873 113.309 222.317C112.782 216.455 112.456 212.754 112.456 212.754C112.456 212.754 112.075 216.551 111.481 222.57C109.332 244.306 102.086 293.11 99.8763 293.526C99.6856 293.526 99.4612 293.56 99.2257 293.583L98.4068 293.616C95.5154 293.709 92.6211 293.617 89.7414 293.341H89.6685L89.1806 293.285C86.9371 293.116 89.8648 229.849 90.7285 209.39C90.9198 204.828 91.7254 200.313 93.1234 195.968L94.0433 193.066L94.262 192.385L96.9317 184.065L97.2795 182.985H98.6536L114.588 182.946H123.831H126.114V182.98L126.467 183.981L128.436 189.662L130.118 194.472C130.561 195.715 130.954 196.964 131.29 198.23C132.356 202.207 132.737 206.319 133.012 210.436C134.751 236.256 138.088 292.964 134.386 293.268Z" fill="#FF888E"/>
<path d="M126.848 185.522C117.314 185.522 106.096 185.607 96.5223 185.607" stroke="#EF4D5D" stroke-width="0.44" stroke-linecap="round" stroke-linejoin="round"/>
<path d="M111.991 185.753C111.991 185.753 111.52 203.236 112.468 212.754" stroke="#EF4D5D" stroke-width="0.44" stroke-linecap="round" stroke-linejoin="round"/>
<path d="M96.7691 185.494C96.8625 185.172 97.0063 184.866 97.1953 184.589C97.4253 184.11 97.3972 183.542 97.6272 183.064" stroke="#EF4D5D" stroke-width="0.22" stroke-linecap="round" stroke-linejoin="round"/>
<path d="M98.188 185.494C98.2699 185.174 98.4005 184.869 98.575 184.589C98.777 184.11 98.7545 183.542 98.962 183.064" stroke="#EF4D5D" stroke-width="0.22" stroke-linecap="round" stroke-linejoin="round"/>
<path d="M99.6071 185.494C99.6801 185.177 99.7972 184.873 99.9548 184.589C100.134 184.11 100.112 183.542 100.303 183.064" stroke="#EF4D5D" stroke-width="0.22" stroke-linecap="round" stroke-linejoin="round"/>
<path d="M101.026 185.494C101.089 185.181 101.19 184.877 101.329 184.589C101.492 184.11 101.475 183.542 101.637 183.064" stroke="#EF4D5D" stroke-width="0.22" stroke-linecap="round" stroke-linejoin="round"/>
<path d="M102.456 185.494C102.508 185.183 102.597 184.879 102.72 184.589C102.86 184.11 102.843 183.542 102.983 183.064" stroke="#EF4D5D" stroke-width="0.22" stroke-linecap="round" stroke-linejoin="round"/>
<path d="M103.864 185.494C103.906 185.186 103.98 184.882 104.083 184.589C104.206 184.11 104.189 183.542 104.313 183.064" stroke="#EF4D5D" stroke-width="0.22" stroke-linecap="round" stroke-linejoin="round"/>
<path d="M105.261 185.494C105.3 185.188 105.362 184.885 105.446 184.589C105.541 184.11 105.53 183.542 105.631 183.064" stroke="#EF4D5D" stroke-width="0.22" stroke-linecap="round" stroke-linejoin="round"/>
<path d="M106.696 185.494C106.726 185.19 106.775 184.887 106.842 184.589C106.915 184.11 106.91 183.542 106.982 183.064" stroke="#EF4D5D" stroke-width="0.22" stroke-linecap="round" stroke-linejoin="round"/>
<path d="M108.115 185.494C108.115 185.157 108.183 184.892 108.216 184.589C108.272 184.11 108.267 183.542 108.323 183.064" stroke="#EF4D5D" stroke-width="0.22" stroke-linecap="round" stroke-linejoin="round"/>
<path d="M109.534 185.494C109.534 185.157 109.574 184.892 109.596 184.589C109.63 184.11 109.596 183.542 109.658 183.064" stroke="#EF4D5D" stroke-width="0.22" stroke-linecap="round" stroke-linejoin="round"/>
<path d="M110.953 185.494C110.953 185.157 110.953 184.892 110.953 184.589C110.953 184.11 110.953 183.542 110.953 183.064" stroke="#EF4D5D" stroke-width="0.22" stroke-linecap="round" stroke-linejoin="round"/>
<path d="M112.372 185.494C112.372 185.157 112.372 184.892 112.372 184.589C112.372 184.11 112.372 183.542 112.372 183.064" stroke="#EF4D5D" stroke-width="0.22" stroke-linecap="round" stroke-linejoin="round"/>
<path d="M113.791 185.494C113.791 185.157 113.752 184.892 113.73 184.589C113.696 184.11 113.73 183.542 113.668 183.064" stroke="#EF4D5D" stroke-width="0.22" stroke-linecap="round" stroke-linejoin="round"/>
<path d="M115.21 185.494C115.21 185.157 115.143 184.892 115.109 184.589C115.053 184.11 115.059 183.542 115.008 183.064" stroke="#EF4D5D" stroke-width="0.22" stroke-linecap="round" stroke-linejoin="round"/>
<path d="M116.629 185.494C116.6 185.19 116.551 184.887 116.483 184.589C116.411 184.11 116.422 183.542 116.343 183.064" stroke="#EF4D5D" stroke-width="0.22" stroke-linecap="round" stroke-linejoin="round"/>
<path d="M118.048 185.494C118.011 185.188 117.95 184.885 117.863 184.589C117.768 184.11 117.779 183.542 117.678 183.064" stroke="#EF4D5D" stroke-width="0.22" stroke-linecap="round" stroke-linejoin="round"/>
<path d="M119.467 185.494C119.42 185.186 119.345 184.883 119.243 184.589C119.125 184.11 119.136 183.542 119.019 183.064" stroke="#EF4D5D" stroke-width="0.22" stroke-linecap="round" stroke-linejoin="round"/>
<path d="M120.886 185.494C120.83 185.183 120.739 184.88 120.617 184.589C120.477 184.11 120.494 183.542 120.353 183.064" stroke="#EF4D5D" stroke-width="0.22" stroke-linecap="round" stroke-linejoin="round"/>
<path d="M122.3 185.494C122.237 185.181 122.135 184.877 121.997 184.589C121.834 184.11 121.857 183.542 121.688 183.064" stroke="#EF4D5D" stroke-width="0.22" stroke-linecap="round" stroke-linejoin="round"/>
<path d="M123.719 185.494C123.648 185.178 123.532 184.873 123.377 184.589C123.191 184.11 123.214 183.542 123.029 183.064" stroke="#EF4D5D" stroke-width="0.22" stroke-linecap="round" stroke-linejoin="round"/>
<path d="M125.138 185.494C125.056 185.174 124.925 184.869 124.751 184.589C124.549 184.11 124.571 183.542 124.364 183.064" stroke="#EF4D5D" stroke-width="0.22" stroke-linecap="round" stroke-linejoin="round"/>
<path d="M126.573 185.494C126.482 185.171 126.338 184.865 126.147 184.589C125.923 184.11 125.945 183.542 125.715 183.064" stroke="#EF4D5D" stroke-width="0.22" stroke-linecap="round" stroke-linejoin="round"/>
<g style="mix-blend-mode:multiply" opacity="0.2">
<path d="M127.942 296.963C127.476 296.963 126.989 296.935 126.45 296.913C125.98 296.94 125.516 296.796 125.143 296.508C124.852 296.118 124.695 295.645 124.695 295.158C124.652 294.649 124.637 294.138 124.65 293.628C124.647 293.6 124.647 293.571 124.65 293.543C124.442 293.543 124.257 293.515 124.089 293.498C122.647 293.757 115.255 243.873 113.315 222.317C112.754 216.455 112.456 212.754 112.456 212.754C112.456 212.754 112.075 216.551 111.481 222.57C109.332 244.3 102.08 293.11 99.8707 293.526C99.6856 293.526 99.4612 293.56 99.2257 293.583C99.2315 293.62 99.2315 293.658 99.2257 293.695C99.2257 294.207 99.1696 294.719 99.1023 295.225C99.0861 295.713 98.9062 296.181 98.5919 296.553C98.3784 296.73 98.1163 296.838 97.8403 296.862C97.9974 295.945 98.1825 294.854 98.4012 293.616C98.4517 293.335 98.4965 293.054 98.547 292.761C102.114 271.718 112.092 214.38 112.417 212.417C112.416 212.4 112.416 212.383 112.417 212.366C113.113 214.526 123.679 272.809 127.179 292.632C127.241 292.97 127.297 293.29 127.347 293.6C127.589 294.966 127.791 296.097 127.942 296.963Z" fill="#FF888E"/>
</g>
<path d="M119.843 166.914L143.573 173.203C146.983 174.143 149.451 176.674 149.182 178.975C148.728 182.541 145.542 184.859 140.825 183.132L118.301 171.566L119.843 166.914Z" fill="#E4A57F"/>
<path d="M126.13 175.577L139.591 182.592C139.591 182.592 144.37 185.089 147.443 182.462" stroke="#D18D5E" stroke-width="0.29" stroke-miterlimit="10"/>
<path d="M117.179 165.722C116.854 165.722 112.507 166.132 111.43 167.032C109.899 168.29 108.736 169.94 108.065 171.808C107.807 172.567 110.151 174.773 110.191 173.912C110.22 173.672 110.322 173.446 110.482 173.265C111.456 172.242 112.743 171.576 114.139 171.375C114.644 171.319 115.154 171.373 115.637 171.532C115.996 171.656 117.661 165.738 117.179 165.722Z" fill="#E4A57F"/>
<path d="M109.899 176.865C110.259 176.576 110.523 176.183 110.656 175.74C111.049 174.75 110.493 173.383 110.69 172.365C110.864 171.431 111.991 170.711 112.675 170.059C113.393 169.441 114.198 168.933 115.064 168.551C115.735 168.27 116.328 167.83 116.792 167.269C116.91 167.094 117.532 167.37 116.383 166.29L112.664 167.179C111.839 167.345 111.045 167.637 110.308 168.045C109.278 169.153 108.474 170.452 107.941 171.87C107.779 172.286 107.941 173.558 108.093 174.789C108.166 175.334 108.294 175.869 108.474 176.387C108.525 176.52 108.605 176.639 108.708 176.736C108.811 176.834 108.934 176.907 109.069 176.95C109.204 177.002 109.35 177.022 109.494 177.007C109.638 176.992 109.777 176.944 109.899 176.865Z" fill="#E4A57F"/>
<g style="mix-blend-mode:multiply" opacity="0.2">
<path d="M109.086 176.972C109.235 176.766 109.327 176.524 109.351 176.271C109.374 176.017 109.329 175.762 109.22 175.532C109.097 175.335 108.933 175.167 108.74 175.039C108.546 174.91 108.328 174.826 108.099 174.789C108.171 175.334 108.299 175.869 108.48 176.387C108.529 176.525 108.609 176.649 108.714 176.751C108.819 176.853 108.946 176.928 109.086 176.972Z" fill="#D3835B"/>
</g>
<path d="M110.219 171.847C110.471 170.953 111.385 169.339 111.901 169.035C111.699 170.244 111.447 171.06 111.245 172.275L110.942 174.092C110.908 174.294 110.914 175.988 110.617 175.847C110.465 175.774 110.325 174.688 110.303 174.531C110.258 174.193 110.022 172.528 110.219 171.847Z" fill="#D3835B"/>
<path d="M111.991 176.578C112.315 176.316 112.551 175.961 112.67 175.56C113.023 174.671 112.524 173.445 112.703 172.5C112.86 171.662 113.875 171.015 114.487 170.43C115.134 169.876 115.858 169.417 116.635 169.069C117.196 168.776 116.786 168.557 117.157 168.022C117.527 167.488 117.975 166.464 117.499 166.02C116.377 166.284 115.631 167.707 114.515 167.949C113.65 168.149 112.815 168.461 112.03 168.877C111.604 169.232 110.718 171.015 110.348 171.769C110.293 171.869 110.264 171.981 110.263 172.095C110.245 172.79 110.27 173.485 110.336 174.176C110.392 174.845 110.527 175.504 110.74 176.139C110.812 176.342 110.956 176.51 111.144 176.612C111.275 176.684 111.423 176.719 111.572 176.713C111.721 176.707 111.866 176.66 111.991 176.578Z" fill="#E4A57F"/>
<g style="mix-blend-mode:multiply" opacity="0.2">
<path d="M111.144 176.618C111.352 176.437 111.505 176.199 111.582 175.934C111.66 175.669 111.66 175.387 111.582 175.121C111.473 174.87 111.302 174.651 111.083 174.486C110.865 174.321 110.607 174.216 110.336 174.182C110.392 174.85 110.527 175.509 110.74 176.145C110.812 176.347 110.956 176.516 111.144 176.618Z" fill="#D3835B"/>
</g>
<path d="M112.266 171.448C112.518 170.559 113.387 169.26 113.814 168.433C113.612 169.642 113.488 170.683 113.287 171.864C113.191 172.472 113.09 173.074 112.989 173.681C112.956 173.889 112.989 175.583 112.67 175.442C112.513 175.369 112.367 174.278 112.35 174.126C112.2 173.241 112.172 172.34 112.266 171.448Z" fill="#D3835B"/>
<path d="M113.859 175.324C114.117 175.1 114.311 174.811 114.42 174.486C114.728 173.732 114.307 172.697 114.464 171.904C114.61 171.195 116.708 166.841 115.76 167.089C115.329 167.16 114.919 167.327 114.56 167.578C114.195 167.882 112.776 170.599 112.423 171.279C112.37 171.382 112.341 171.496 112.339 171.611C112.316 172.319 112.348 173.029 112.434 173.732C112.487 174.34 112.661 174.931 112.944 175.47C112.963 175.501 112.988 175.528 113.018 175.549C113.048 175.569 113.082 175.583 113.118 175.588C113.389 175.593 113.652 175.499 113.859 175.324Z" fill="#E4A57F"/>
<g style="mix-blend-mode:multiply" opacity="0.2">
<path d="M113.113 175.588L113.18 175.515C113.319 175.346 113.412 175.143 113.447 174.927C113.483 174.71 113.46 174.488 113.382 174.283C113.291 174.11 113.154 173.965 112.985 173.866C112.817 173.766 112.624 173.716 112.428 173.721C112.481 174.328 112.655 174.919 112.939 175.459C112.956 175.492 112.981 175.521 113.011 175.544C113.041 175.566 113.076 175.581 113.113 175.588Z" fill="#D3835B"/>
</g>
<path d="M113.988 170.812C114.257 169.929 115.289 168.562 115.726 167.769C115.496 168.979 115.317 169.794 115.087 171.004L114.75 172.809C114.711 173.017 114.689 174.711 114.391 174.564C114.234 174.486 114.117 173.394 114.1 173.242C114.066 172.911 113.78 171.493 113.988 170.812Z" fill="#D3835B"/>
<path d="M115.58 174.761C115.837 174.538 116.031 174.251 116.141 173.929C116.45 173.175 116.102 171.808 116.259 171.015C116.399 170.306 116.36 168.956 117.499 169.327C123.214 171.184 121.772 165.952 118.503 165.615C117.448 165.553 116.391 165.653 115.367 165.913C115.367 165.913 114.498 170.042 114.145 170.722C114.093 170.826 114.062 170.939 114.055 171.054C114.032 171.763 114.065 172.472 114.156 173.175C114.21 173.783 114.383 174.373 114.666 174.913C114.684 174.944 114.708 174.971 114.737 174.992C114.766 175.012 114.799 175.026 114.835 175.031C115.108 175.04 115.375 174.943 115.58 174.761Z" fill="#E4A57F"/>
<g style="mix-blend-mode:multiply" opacity="0.2">
<path d="M114.829 175.031C114.856 175.008 114.881 174.981 114.902 174.953C115.04 174.784 115.132 174.582 115.167 174.367C115.203 174.151 115.181 173.93 115.104 173.726C115.013 173.552 114.876 173.407 114.707 173.308C114.539 173.208 114.346 173.158 114.15 173.164C114.204 173.771 114.377 174.362 114.661 174.902C114.677 174.935 114.7 174.964 114.729 174.987C114.759 175.009 114.793 175.024 114.829 175.031Z" fill="#D3835B"/>
</g>
<g style="mix-blend-mode:multiply" opacity="0.3">
<path d="M142.373 175.026C142.423 177.956 140.231 181.618 138.66 182.04C133.455 183.441 130.673 174.452 129.193 165.547L128.632 165.907C128.632 165.907 128.34 163.995 128.121 162.436C128.121 162.256 128.077 162.082 128.054 161.919C127.931 162.178 127.807 162.425 127.667 162.678C126.854 168.135 125.356 178.766 125.356 178.766L126.13 182.974L126.484 183.975L128.452 189.657L130.135 194.466C130.578 195.71 130.971 196.958 131.307 198.224C128.829 196.87 126.457 195.328 124.212 193.611C121.83 191.817 119.673 189.739 117.79 187.424C117.302 186.816 116.831 186.192 116.377 185.567C115.76 184.718 115.165 183.88 114.605 182.985C112.138 179.173 110.022 175.144 108.284 170.947C108.087 170.486 107.902 170.025 107.723 169.575C105.381 163.771 103.648 157.738 102.552 151.574L112.053 145.814L113.943 144.689C115.143 143.958 116.377 143.283 117.633 142.669C119.424 141.786 121.269 141.019 123.158 140.374C124.967 140.548 126.749 140.941 128.464 141.544C131.233 142.375 133.573 144.253 134.986 146.782C137.064 150.514 138.804 154.426 140.186 158.471L138.626 159.466C140.791 165.98 142.323 172.432 142.373 175.026Z" fill="#FFBDC3"/>
</g>
<path d="M161.908 140.807L148.716 138.777C137.682 137.082 126.405 139.327 116.854 145.122L105.44 152.058C105.44 152.058 108.553 172.612 120.684 187.896C129.064 198.443 144.97 203.506 144.981 203.506C144.981 203.506 157.763 192.728 161.487 179.768C166.877 161.002 161.908 140.807 161.908 140.807Z" fill="#8D90A9"/>
<g style="mix-blend-mode:multiply" opacity="0.3">
<path d="M161.908 140.807L148.716 138.777C137.682 137.082 126.405 139.327 116.854 145.122L105.44 152.058C105.44 152.058 108.553 172.612 120.684 187.896C129.064 198.443 144.97 203.506 144.981 203.506C144.981 203.506 157.763 192.728 161.487 179.768C166.877 161.002 161.908 140.807 161.908 140.807Z" fill="#3ABBC7"/>
</g>
<path d="M144.101 199.062C139.759 197.375 129.552 192.835 123.713 185.477C114.795 174.249 110.981 159.731 109.747 153.976L118.856 148.447C127.632 143.116 137.998 141.051 148.139 142.613L158.666 144.233C159.721 150.022 161.723 164.906 157.763 178.693C155.178 187.733 147.471 195.839 144.101 199.062Z" fill="#040C5E"/>
<path opacity="0.7" d="M108.351 153.127C108.381 153.277 108.366 153.434 108.308 153.576C108.25 153.718 108.151 153.84 108.024 153.925C107.897 154.011 107.747 154.057 107.594 154.057C107.44 154.057 107.291 154.012 107.163 153.927C107.036 153.841 106.936 153.72 106.877 153.578C106.819 153.436 106.803 153.28 106.833 153.129C106.863 152.978 106.937 152.84 107.045 152.731C107.154 152.623 107.292 152.549 107.442 152.519C107.643 152.479 107.851 152.521 108.022 152.635C108.192 152.749 108.31 152.926 108.351 153.127Z" fill="white"/>
<path opacity="0.7" d="M161.078 142.636C161.107 142.785 161.092 142.94 161.033 143.081C160.975 143.221 160.876 143.342 160.749 143.426C160.623 143.51 160.474 143.555 160.322 143.555C160.17 143.555 160.022 143.509 159.896 143.424C159.77 143.339 159.671 143.219 159.614 143.078C159.556 142.937 159.541 142.782 159.571 142.633C159.6 142.483 159.674 142.346 159.781 142.239C159.889 142.131 160.026 142.058 160.175 142.028C160.274 142.009 160.376 142.009 160.475 142.029C160.574 142.048 160.668 142.088 160.752 142.144C160.836 142.201 160.908 142.273 160.964 142.357C161.02 142.442 161.058 142.536 161.078 142.636Z" fill="white"/>
<path opacity="0.7" d="M145.351 200.772C145.382 200.923 145.367 201.079 145.309 201.221C145.25 201.364 145.151 201.485 145.024 201.571C144.897 201.657 144.747 201.702 144.594 201.703C144.441 201.703 144.291 201.657 144.163 201.572C144.036 201.487 143.936 201.366 143.878 201.224C143.819 201.082 143.804 200.926 143.834 200.775C143.863 200.624 143.937 200.486 144.046 200.377C144.154 200.268 144.292 200.195 144.443 200.165C144.643 200.125 144.852 200.167 145.022 200.28C145.192 200.394 145.311 200.571 145.351 200.772Z" fill="white"/>
<g opacity="0.7">
<g style="mix-blend-mode:screen" opacity="0.7">
<path d="M118.015 180.921C123.347 189.086 130.975 195.479 139.933 199.293" stroke="black" stroke-width="1.14" stroke-linecap="round" stroke-linejoin="round"/>
</g>
</g>
<g opacity="0.7">
<g style="mix-blend-mode:screen" opacity="0.7">
<path d="M116.091 177.715C116.366 178.21 116.652 178.705 116.938 179.194" stroke="#3ABBC7" stroke-width="1.14" stroke-linecap="round" stroke-linejoin="round"/>
</g>
</g>
<g opacity="0.7">
<g style="mix-blend-mode:screen" opacity="0.7">
<path d="M108.272 156.62C109.955 162.971 111.901 169.327 114.784 175.183C114.969 175.571 115.165 175.954 115.345 176.336" stroke="#3ABBC7" stroke-width="1.14" stroke-linecap="round" stroke-linejoin="round"/>
</g>
</g>
<g opacity="0.7">
<g style="mix-blend-mode:screen" opacity="0.7">
<path d="M161.986 159.579C162.02 160.586 161.986 160.811 161.986 161.829" stroke="#3ABBC7" stroke-width="1.14" stroke-linecap="round" stroke-linejoin="round"/>
</g>
</g>
<g opacity="0.7">
<g style="mix-blend-mode:screen" opacity="0.7">
<path d="M160.786 146.163C161.313 150.1 161.751 154.1 161.908 158.083" stroke="#3ABBC7" stroke-width="1.14" stroke-linecap="round" stroke-linejoin="round"/>
</g>
</g>
</g>
<defs>
<clipPath id="clip0">
<rect width="98" height="214" fill="white" transform="translate(66 107)"/>
</clipPath>
</defs>
</svg>
