<svg width="98" height="214" viewBox="0 0 98 214" fill="none" xmlns="http://www.w3.org/2000/svg">
<g clip-path="url(#clip0)">
<path d="M59.6312 10.2041C58.616 3.74635 51.3192 -1.37822 46.3387 0.331847C40.2365 -0.753819 33.8931 3.81948 32.5975 10.2041C32.1263 12.5048 31.7842 16.8418 31.7842 16.8418L30.9597 27.8335C31.7842 28.0191 32.6872 28.1992 33.6519 28.3623C33.7416 27.2822 33.8314 26.2135 33.9211 25.6566C33.9996 26.2191 34.0838 27.3441 34.1791 28.4692C35.2223 28.6379 36.3328 28.7898 37.505 28.9136C37.6004 27.901 37.6957 26.8604 37.7855 26.2641C37.8696 26.8716 37.965 27.9516 38.0603 28.9754C40.7496 29.2464 43.4508 29.3816 46.1536 29.3804C48.627 29.3804 50.9995 29.2679 53.1981 29.0767C53.3046 27.9516 53.4112 26.7478 53.5177 26.0672C53.6131 26.7366 53.7141 27.9066 53.8262 29.0148C55.2172 28.8854 56.5352 28.7167 57.7523 28.531C57.8476 27.406 57.943 26.2135 58.0383 25.6116C58.1225 26.1741 58.2066 27.2991 58.3019 28.4242C59.375 28.2479 60.3622 28.0604 61.2633 27.8616L60.4725 17.4887C60.4725 17.4887 59.9397 12.1392 59.6312 10.2041Z" fill="#351D19"/>
<path d="M67.3038 194.255C67.5001 187.033 67.4497 177.807 67.646 169.336H57.814C57.814 169.336 59.3844 185.795 59.8555 194.407L67.3038 194.255Z" fill="#E4A57F"/>
<path d="M58.0664 210.524C58.0658 211.319 58.315 212.095 58.7787 212.74C59.5471 213.668 60.8707 213.865 62.071 213.938C64.4854 214.18 66.9235 213.902 69.222 213.122C69.6485 212.98 70.0417 212.753 70.3774 212.453C70.8662 211.891 71.1421 211.174 71.157 210.428C71.2813 208.324 70.9344 206.22 70.1418 204.268C69.8558 203.498 69.5361 202.738 69.2052 202.018C67.8198 198.93 67.7974 193.699 67.7974 193.699C66.9897 193.254 66.2326 194.064 64.0789 194.165C62.9571 194.216 59.5415 193.49 59.5415 193.49C59.5415 193.49 58.9133 198.126 58.9806 199.116C59.0477 201.23 58.9068 203.346 58.5599 205.433C58.4253 206.412 58.2459 207.39 58.1393 208.375C58.0561 209.088 58.0317 209.807 58.0664 210.524Z" fill="#F9BB30"/>
<path d="M58.0664 210.524C58.0658 211.319 58.315 212.095 58.7787 212.74C59.5471 213.668 60.8707 213.865 62.071 213.938C64.4854 214.18 66.9235 213.902 69.222 213.122C69.6485 212.98 70.0417 212.753 70.3774 212.453C70.8662 211.891 71.1421 211.174 71.157 210.428C71.2813 208.324 70.9344 206.22 70.1418 204.268C69.8838 205.09 70.383 206.412 70.4166 207.177C70.5111 208.019 70.3321 208.869 69.9063 209.601C69.3837 210.248 68.6649 210.706 67.8591 210.906C65.9373 211.475 63.9107 211.593 61.9364 211.249C61.0994 211.16 60.2918 210.889 59.5695 210.456C58.8487 209.966 58.3366 209.224 58.1337 208.375C58.0524 209.088 58.0299 209.807 58.0664 210.524Z" fill="white"/>
<path d="M66.0026 194.188C66.0039 193.695 65.8287 193.218 65.5091 192.844C64.9243 192.394 64.1976 192.17 63.4619 192.214C63.0827 192.18 62.7008 192.226 62.3402 192.349C61.583 192.647 61.3923 193.429 61.3418 194.104C61.2482 195.298 61.318 196.5 61.5493 197.676C61.5854 197.988 61.7078 198.284 61.9027 198.531C62.316 198.885 62.8396 199.084 63.3834 199.093C64.5051 199.206 66.0307 198.891 66.1877 197.833C66.2612 196.615 66.1991 195.392 66.0026 194.188Z" fill="#F9BB30"/>
<path d="M66.8888 203.841C65.2511 202.53 63.0693 202.187 60.9941 201.895C61.5102 201.495 62.1248 201.245 62.772 201.169C63.928 200.954 65.109 200.911 66.2775 201.039C64.763 199.784 62.8523 199.11 60.8875 199.138C62.2494 197.955 63.9996 197.32 65.8007 197.355C64.3981 196.802 62.9102 196.497 61.4035 196.455" stroke="white" stroke-width="0.43" stroke-linecap="round" stroke-linejoin="round"/>
<path d="M60.8875 203.841C62.5253 202.53 64.707 202.187 66.7822 201.895C66.2661 201.495 65.6516 201.245 65.0043 201.169C63.8484 200.954 62.6674 200.911 61.4989 201.039C63.0139 199.785 64.9242 199.111 66.8888 199.138C65.527 197.955 63.7768 197.32 61.9756 197.355C63.3802 196.802 64.8699 196.497 66.3784 196.455" stroke="white" stroke-width="0.43" stroke-linecap="round" stroke-linejoin="round"/>
<path d="M24.4649 194.255C24.2686 187.033 24.3135 177.807 24.1228 169.336H33.9267C33.9267 169.336 32.3619 185.795 31.8908 194.407L24.4649 194.255Z" fill="#E4A57F"/>
<path d="M33.6799 210.524C33.6806 211.319 33.4313 212.095 32.9676 212.74C32.1993 213.668 30.8756 213.865 29.6754 213.938C27.261 214.18 24.8228 213.902 22.5243 213.122C22.0972 212.982 21.7038 212.754 21.3689 212.453C20.8785 211.891 20.6006 211.174 20.5837 210.428C20.4612 208.324 20.81 206.219 21.6045 204.268C21.8905 203.498 22.2102 202.738 22.5412 202.018C23.9265 198.93 23.9489 193.699 23.9489 193.699C24.7566 193.254 25.5137 194.064 27.6675 194.165C28.7892 194.216 32.2049 193.49 32.2049 193.49C32.2049 193.49 32.833 198.126 32.7657 199.116C32.6958 201.23 32.8368 203.346 33.1864 205.433C33.321 206.412 33.5005 207.39 33.607 208.375C33.6902 209.088 33.7146 209.807 33.6799 210.524Z" fill="#F9BB30"/>
<path d="M33.6799 210.524C33.6806 211.319 33.4313 212.095 32.9676 212.74C32.1993 213.668 30.8756 213.865 29.6754 213.938C27.261 214.18 24.8228 213.902 22.5243 213.122C22.0972 212.982 21.7038 212.754 21.3689 212.453C20.8785 211.891 20.6006 211.174 20.5837 210.428C20.4612 208.324 20.81 206.219 21.6045 204.268C21.8625 205.09 21.3633 206.412 21.3297 207.177C21.2336 208.018 21.4106 208.868 21.8345 209.601C22.3591 210.248 23.0797 210.706 23.8872 210.906C25.8071 211.475 27.8319 211.592 29.8044 211.249C30.6433 211.161 31.4529 210.89 32.1768 210.456C32.8961 209.965 33.4077 209.223 33.6126 208.375C33.694 209.088 33.7165 209.807 33.6799 210.524Z" fill="white"/>
<path d="M25.7437 194.188C25.7399 193.695 25.9154 193.217 26.2373 192.844C26.8203 192.395 27.545 192.171 28.2788 192.214C28.658 192.182 29.0397 192.228 29.4006 192.349C30.1577 192.647 30.3484 193.429 30.3989 194.104C30.4897 195.298 30.4199 196.5 30.1914 197.676C30.1571 197.99 30.0323 198.287 29.8324 198.531C29.4201 198.887 28.8959 199.086 28.3517 199.093C27.23 199.206 25.7101 198.891 25.5474 197.833C25.4718 196.615 25.5376 195.391 25.7437 194.188Z" fill="#F9BB30"/>
<path d="M24.8575 203.841C26.4953 202.53 28.677 202.187 30.7522 201.895C30.2361 201.495 29.6216 201.245 28.9743 201.169C27.8184 200.954 26.6374 200.911 25.4689 201.039C26.9796 199.784 28.886 199.108 30.8476 199.133C29.4857 197.95 27.7355 197.315 25.9344 197.349C27.337 196.796 28.8249 196.491 30.3316 196.449" stroke="white" stroke-width="0.43" stroke-linecap="round" stroke-linejoin="round"/>
<path d="M30.8476 203.841C29.2099 202.53 27.0281 202.187 24.9529 201.895C25.469 201.495 26.0836 201.245 26.7308 201.169C27.8867 200.954 29.0677 200.911 30.2362 201.039C28.725 199.785 26.819 199.109 24.8575 199.133C26.2179 197.951 27.9659 197.316 29.7651 197.349C28.3626 196.795 26.8747 196.491 25.3679 196.449" stroke="white" stroke-width="0.43" stroke-linecap="round" stroke-linejoin="round"/>
<path d="M5.32822 36.4007C10.8023 35.8044 30.0512 35.6188 32.0366 35.5232C34.2184 35.4163 35.3682 35.9563 37.2975 36.8788C34.3137 41.5759 35.3345 44.5685 29.9726 46.1267C29.9726 46.1267 10.2975 48.4443 1.58725 45.0579C-2.09203 42.2453 1.23951 36.8451 5.32822 36.4007Z" fill="#E4A57F"/>
<path d="M23.2591 21.1339C23.6853 21.2239 24.4089 21.4602 24.8463 21.5108C25.0493 21.5425 25.2568 21.5254 25.4518 21.4608C25.6469 21.3963 25.8238 21.2862 25.9681 21.1395C26.1251 20.9933 25.7942 20.3914 25.6259 20.2507C25.186 19.8069 24.6362 19.4885 24.0331 19.3282C23.7305 19.2567 23.423 19.2078 23.1133 19.1819C22.2741 18.9749 21.4239 18.8153 20.5669 18.7038C19.8378 18.6982 22.5524 20.982 23.2591 21.1339Z" fill="#D3835B"/>
<path d="M21.5821 20.5996C22.272 20.7964 23.0123 20.8752 23.719 21.0271C24.1453 21.1171 24.5435 21.3308 24.9753 21.3815C25.1695 21.42 25.3702 21.4093 25.5593 21.3504C25.7483 21.2915 25.9197 21.1861 26.0578 21.0439C26.0981 21.0091 26.1305 20.9659 26.1527 20.9174C26.1749 20.8688 26.1864 20.8161 26.1864 20.7627C26.1864 20.7093 26.1749 20.6565 26.1527 20.608C26.1305 20.5594 26.0981 20.5163 26.0578 20.4814C25.4718 19.9988 24.7917 19.6443 24.0611 19.4408C23.7861 19.3805 23.5066 19.3429 23.2254 19.3283C22.661 19.1683 22.088 19.0406 21.5092 18.9457C21.1136 18.8911 20.7325 18.7592 20.3875 18.5576C18.301 17.4944 20.0061 20.1495 21.5821 20.5996Z" fill="#E4A57F"/>
<path d="M24.1733 12.606C24.2644 12.5703 24.3629 12.5574 24.4601 12.5685C24.5574 12.5797 24.6504 12.6145 24.7312 12.67C24.8119 12.7254 24.8779 12.7998 24.9234 12.8868C24.9689 12.9737 24.9925 13.0704 24.9922 13.1686C25.3885 15.0661 25.7848 16.9637 26.1812 18.8613C26.2007 18.9635 26.2007 19.0685 26.1812 19.1707C26.1195 19.4463 25.7942 19.5476 25.525 19.5982C24.0049 19.8922 22.4663 20.0801 20.9203 20.1607C20.2826 20.2096 19.6415 20.1907 19.0077 20.1045C18.5452 20.0199 18.0881 19.9072 17.6392 19.7669L15.693 19.2044C15.6369 19.191 15.5849 19.1639 15.5416 19.1257C15.4978 19.0712 15.4723 19.0043 15.4687 18.9344L15.0985 16.1218C14.9639 15.1318 14.9022 14.9349 15.8501 14.5749C17.5733 13.9223 19.3481 13.4162 21.1558 13.0617C22.1617 12.8629 23.1675 12.711 24.1733 12.606Z" fill="#E4A57F"/>
<path d="M23.4946 13.5005C23.6973 13.4369 23.9145 13.4369 24.1172 13.5005C24.4369 13.6467 24.5154 14.063 24.5547 14.4061C24.6444 15.1993 24.7285 15.9925 24.8183 16.78C24.9248 17.7531 25.2333 19.7388 24.8183 19.7276C24.6388 18.04 24.4481 16.3525 24.2574 14.6649C24.251 14.4634 24.1868 14.2681 24.0723 14.1024C23.9798 14.0167 23.8711 13.9507 23.7525 13.9082C23.634 13.8656 23.5081 13.8475 23.3825 13.8549C22.5972 13.8155 21.6101 14.0968 20.8698 13.7817C20.9371 13.6299 21.8849 13.658 22.1149 13.6355C22.5771 13.6185 23.0379 13.5734 23.4946 13.5005Z" fill="#D3835B"/>
<path d="M23.7807 13.5961C23.8807 13.5764 23.9836 13.5764 24.0836 13.5961C24.3247 13.6918 24.392 13.9955 24.4201 14.2543C24.5996 15.7731 24.7622 17.2863 24.908 18.8051C24.9854 19.1854 24.9362 19.5806 24.7678 19.9301C24.5978 20.1267 24.3876 20.2842 24.1514 20.392C23.9153 20.4997 23.6587 20.5552 23.3993 20.5545C23.2673 20.5878 23.1278 20.5718 23.0067 20.5095C22.8328 20.3914 22.8441 20.1383 22.8721 19.947C22.9899 19.0515 23.0012 18.1451 22.9057 17.2469C22.888 16.8272 22.7645 16.4189 22.5468 16.06C22.2682 15.6938 21.8719 15.4354 21.4251 15.3287C21.1679 15.273 20.9163 15.1939 20.6735 15.0925C20.5217 15.0424 20.3925 14.9398 20.3092 14.803C20.2259 14.6662 20.1939 14.5041 20.2189 14.3457C20.2438 14.1874 20.3242 14.0432 20.4455 13.9388C20.5668 13.8344 20.7212 13.7768 20.881 13.7762C21.8401 13.6468 22.8328 13.6636 23.7807 13.5961Z" fill="#E4A57F"/>
<path d="M22.9001 14.6762C23.1046 14.6114 23.3239 14.6114 23.5283 14.6762C23.848 14.8224 23.9265 15.2387 23.9658 15.5818C24.0794 16.3267 24.1431 17.0785 24.1565 17.8319C24.1565 19.5195 23.5956 20.2283 22.8721 20.2395C22.6926 18.5519 23.8312 17.5169 23.6517 15.8406C23.6473 15.6396 23.585 15.4443 23.4722 15.2781C23.3788 15.1918 23.2692 15.125 23.1498 15.0815C23.0304 15.0381 22.9036 15.0188 22.7767 15.0249C21.9971 14.9912 21.01 15.2724 20.2641 14.9518C20.337 14.7999 21.2624 14.9181 21.4868 14.9012C21.9619 14.8542 22.4338 14.7791 22.9001 14.6762Z" fill="#D3835B"/>
<path d="M21.1783 20.0764C21.0703 20.0401 20.9697 19.9849 20.881 19.9132C20.5557 19.632 20.623 19.1088 20.4211 18.7319C20.3495 18.9683 20.3544 19.2213 20.435 19.4547C20.5156 19.6882 20.6678 19.89 20.8698 20.0314C21.2823 20.3012 21.7687 20.435 22.2607 20.4139C22.4626 20.4139 22.9674 20.4139 23.0628 20.1832C22.9674 20.1439 22.816 20.1832 22.715 20.2282C22.5406 20.2555 22.3643 20.2687 22.1878 20.2676C21.8428 20.2629 21.5012 20.1982 21.1783 20.0764Z" fill="#D3835B"/>
<path d="M23.1469 14.8787C23.3051 14.8813 23.4591 14.9302 23.59 15.0193C23.7493 15.179 23.8468 15.3904 23.8648 15.6156C24.0821 16.8463 24.0401 18.1091 23.7414 19.3226C23.71 19.4983 23.6453 19.6664 23.5507 19.8176C23.2367 20.2845 22.5636 20.3014 22.0028 20.2507C21.6518 20.2414 21.3072 20.155 20.9932 19.9976C20.8398 19.9146 20.7152 19.7867 20.6361 19.631C20.5569 19.4752 20.5269 19.299 20.5501 19.1257C20.5853 18.9822 20.6685 18.8552 20.7857 18.7657C20.9371 18.6532 21.1278 18.6138 21.2905 18.5126C21.4372 18.3933 21.5538 18.2409 21.6308 18.0679C21.7078 17.8949 21.743 17.7061 21.7335 17.5169C21.7441 17.0173 21.616 16.5245 21.3634 16.0937C21.1166 15.6662 18.4525 15.0531 21.3634 14.9687C21.8738 14.9743 22.6085 14.8393 23.1469 14.8787Z" fill="#E4A57F"/>
<path d="M16.9998 19.6882C17.4356 19.7303 17.8731 19.6275 18.2449 19.3957C18.4243 19.2793 18.6117 19.176 18.8058 19.0863C18.9691 19.0303 19.1386 18.9944 19.3106 18.9795C19.7088 18.9232 20.107 18.8782 20.5108 18.8445C21.0997 18.8327 21.6815 18.7125 22.2271 18.4901C22.3511 18.4414 22.4627 18.3657 22.5539 18.2684C22.6451 18.1711 22.7135 18.0547 22.7543 17.9276C21.7488 18.4685 20.6307 18.7652 19.4901 18.7938C19.2808 18.7891 19.0718 18.8098 18.8675 18.8557C18.3066 19.0132 17.9589 19.5757 17.4093 19.6207C17.1882 19.6132 16.9711 19.5593 16.7721 19.4624C16.5731 19.3655 16.3965 19.2278 16.2539 19.0582C16.181 18.9907 16.0912 18.912 15.9903 18.9288C15.8837 19.0863 16.2483 19.3901 16.3548 19.4914C16.5501 19.6099 16.7718 19.6776 16.9998 19.6882Z" fill="#D3835B"/>
<path d="M15.3116 14.7943C14.638 14.9961 14.0263 15.3657 13.5337 15.8687C11.1051 19.0132 5.00292 28.0698 2.92211 32.8287C0.841296 37.5877 -2.55755 43.4266 3.48297 45.4573C3.48297 45.4573 7.96989 47.1449 10.2975 39.8715C12.9055 31.6531 10.6901 30.2074 16.2314 19.3282C16.7755 18.2651 15.3116 14.7943 15.3116 14.7943Z" fill="#E4A57F"/>
<path d="M8.87849 22.6415C3.67927 30.5168 -2.89968 42.386 1.58724 44.9905" stroke="#D18D5E" stroke-width="0.29" stroke-miterlimit="10"/>
<path d="M76.373 68.0257C76.4235 70.9564 74.2305 74.6184 72.6601 75.0403C67.4553 76.441 64.6734 67.4519 63.1927 58.5472C62.9179 56.9215 62.6879 55.3127 62.4972 53.7545C62.4636 53.4845 62.4355 53.192 62.3963 52.9445C62.3458 52.4551 62.2897 51.9713 62.2392 51.4932C62.1271 50.4581 62.0317 49.4794 61.9532 48.5568C61.6671 45.2773 61.5606 42.8922 61.5325 42.4197C61.3923 40.5521 63.5404 39.174 64.8977 36.3107C67.4945 38.9377 70.3886 45.733 72.6152 52.4663C74.7914 58.9803 76.3225 65.4325 76.373 68.0257Z" fill="#E4A57F"/>
<g style="mix-blend-mode:multiply" opacity="0.2">
<g style="mix-blend-mode:multiply" opacity="0.2">
<path d="M76.373 68.0257C76.4235 70.9564 74.2305 74.6184 72.6601 75.0403C67.4553 76.441 64.6734 67.4519 63.1927 58.5472C62.9179 56.9215 62.6879 55.3127 62.4972 53.7545C62.4636 53.4845 62.4355 53.192 62.3963 52.9445C62.3458 52.4551 62.2897 51.9713 62.2392 51.4932C62.1271 50.4581 62.0317 49.4794 61.9532 48.5568C61.6671 45.2773 61.5606 42.8922 61.5325 42.4197C61.3923 40.5521 63.5404 39.174 64.8977 36.3107C67.4945 38.9377 70.3886 45.733 72.6152 52.4663C74.7914 58.9803 76.3225 65.4325 76.373 68.0257Z" fill="#E4A57F"/>
</g>
</g>
<path d="M74.1856 51.4707L72.6264 52.4664L63.1927 58.5472L62.6318 58.9072C62.6318 58.9072 62.3402 56.9947 62.1214 55.4365C62.1214 55.2565 62.0766 55.0821 62.0541 54.919C61.998 54.5477 61.9644 54.2158 61.9307 53.9627L61.6671 55.6502C60.8539 61.1067 59.3564 71.7383 59.3564 71.7383L60.1304 75.946C60.2762 76.7448 60.4332 77.6336 60.5959 78.4942C61.2857 82.2969 62.0149 86.3414 62.0261 86.5833H29.4959C29.4959 86.302 30.2138 82.3025 30.87 78.573C31.027 77.6786 31.1841 76.7954 31.3243 75.9798L31.9693 72.1152C31.9693 72.1152 30.6905 63.9306 29.5856 57.0565C28.9911 53.4002 28.4639 50.1207 28.1779 48.6187L28.1442 48.45H27.2692H27.2132C22.3505 48.3487 19.6303 48.1012 20.0004 48.0674L18.9404 34.6738C18.9404 34.6738 25.783 33.9819 28.1666 33.83C30.9205 33.6669 39.3839 33.2169 39.6924 33.2C39.7314 33.4754 39.8269 33.7397 39.9728 33.9763C42.9623 37.4302 48.6046 36.9745 51.7005 33.4756C51.7005 33.4756 51.7005 33.3969 51.6613 33.2506H52.0539C53.737 33.1597 55.4246 33.1992 57.1017 33.3688C58.9109 33.5423 60.6925 33.9352 62.4075 34.5388C65.1991 35.3574 67.5604 37.2391 68.9864 39.7815C71.064 43.5144 72.8041 47.4264 74.1856 51.4707Z" fill="#FFBDC3"/>
<path d="M39.67 33.3238C39.67 33.3238 39.4008 38.5609 45.6993 38.814C51.8408 38.9996 52.1605 33.7513 52.1605 33.7513C52.1605 33.7513 52.1212 33.4194 52.0595 32.8625C52.0146 32.4913 51.9754 32.12 51.9305 31.7375L51.8969 31.4112C51.8352 30.8487 51.7791 30.348 51.7174 29.8305L51.6333 29.2511C51.6333 29.0824 51.594 28.9192 51.5772 28.7505C51.5435 28.4974 51.5211 28.2442 51.4874 27.9855C51.49 27.9405 51.49 27.8954 51.4874 27.8505C51.3304 26.5454 51.179 25.246 51.0612 24.2334C51.0664 24.198 51.0664 24.162 51.0612 24.1266C51.0107 23.7159 50.9714 23.3503 50.9322 23.0634C50.9322 22.9734 50.9322 22.889 50.8985 22.8159C50.8985 22.6415 50.8593 22.4952 50.8424 22.3884C48.083 22.9171 41.0217 24.4472 41.0217 24.4472L40.2477 29.9824L39.67 33.3238Z" fill="#E4A57F"/>
<g style="mix-blend-mode:multiply" opacity="0.2">
<path d="M52.0427 32.8625C49.5083 33.512 46.8434 33.44 44.3476 32.6543C43.251 32.2658 42.2272 31.6954 41.3189 30.9668C40.9418 30.6572 40.5841 30.3247 40.2477 29.9711L41.0048 24.4359C41.0048 24.4359 48.0549 22.9058 50.82 22.3827C50.9939 23.5134 51.5267 28.3229 52.0427 32.8625Z" fill="#E4A57F"/>
</g>
<path d="M54.7517 23.0633C53.8201 24.6125 52.4969 25.8873 50.9161 26.7585C49.3353 27.6298 47.5531 28.0666 45.7498 28.0248C42.2331 27.8954 38.0659 26.2584 36.6133 22.3658C33.4556 13.928 36.4506 8.40402 36.9161 5.73767L55.75 5.91768C55.75 5.91768 58.33 16.9825 54.7517 23.0633Z" fill="#E4A57F"/>
<path d="M39.9841 12.3136C40.2756 12.1804 40.5913 12.1086 40.9116 12.1028C41.2319 12.097 41.55 12.1573 41.8462 12.2798C42.0332 12.3423 42.1997 12.455 42.3272 12.6058C42.4548 12.7566 42.5387 12.9396 42.5697 13.1349C42.5763 13.1894 42.5684 13.2447 42.5467 13.2951C42.5251 13.3455 42.4904 13.3892 42.4463 13.4218C42.3854 13.4519 42.3177 13.4655 42.25 13.4611C41.6891 13.4611 41.1843 13.3992 40.6571 13.4611C40.2308 13.4951 39.8144 13.6076 39.4288 13.793C39.2269 13.883 38.3856 14.1868 38.868 13.3767C39.1094 12.9059 39.5028 12.5311 39.9841 12.3136Z" fill="#351D19"/>
<path d="M51.9249 12.7355C51.6433 12.5818 51.333 12.488 51.0136 12.4599C50.6942 12.4319 50.3725 12.4701 50.0684 12.5723C49.879 12.6218 49.7066 12.7224 49.5702 12.8633C49.4337 13.0041 49.3384 13.1797 49.2945 13.3711C49.2819 13.4248 49.2841 13.4809 49.3009 13.5334C49.3177 13.586 49.3484 13.6329 49.3898 13.6692C49.4497 13.7031 49.5174 13.7205 49.5861 13.7199C50.1133 13.7649 50.6517 13.7199 51.179 13.8155C51.6003 13.8825 52.0066 14.0234 52.3792 14.2318C52.5699 14.3443 53.3944 14.7043 52.9962 13.8661C52.7777 13.378 52.3999 12.9791 51.9249 12.7355Z" fill="#351D19"/>
<path d="M40.4103 15.6381C40.4482 15.7296 40.5039 15.8125 40.5742 15.8821C40.6446 15.9516 40.728 16.0064 40.8198 16.0431C40.9951 16.1391 41.1977 16.1724 41.3944 16.1376C41.5911 16.1029 41.7702 16.0021 41.9022 15.8518C42.0087 15.7294 42.0787 15.5794 42.1042 15.419C42.1297 15.2586 42.1097 15.0942 42.0466 14.9446C41.9834 14.7951 41.8796 14.6663 41.747 14.5731C41.6143 14.4799 41.4582 14.4259 41.2965 14.4174C40.6964 14.3218 40.2253 15.0812 40.4103 15.6381Z" fill="#351D19"/>
<path d="M49.6702 15.9643C49.7081 16.0558 49.7638 16.1388 49.8341 16.2083C49.9045 16.2779 49.9879 16.3326 50.0797 16.3693C50.2541 16.4649 50.4558 16.498 50.6516 16.4632C50.8473 16.4285 51.0254 16.3279 51.1565 16.1781C51.265 16.0568 51.3369 15.9071 51.3639 15.7464C51.3909 15.5857 51.3719 15.4207 51.309 15.2704C51.2461 15.1202 51.142 14.9909 51.0088 14.8977C50.8756 14.8044 50.7187 14.751 50.5564 14.7437C49.9563 14.6255 49.4851 15.4074 49.6702 15.9643Z" fill="#351D19"/>
<g style="mix-blend-mode:multiply">
<path d="M45.8732 14.7493C45.8756 15.4741 45.7125 16.19 45.3964 16.8418C45.2395 17.1301 45.1027 17.429 44.987 17.7363C44.9544 17.8455 44.9472 17.9607 44.9658 18.0732C44.9844 18.1856 45.0284 18.2924 45.0944 18.3852C45.1604 18.478 45.2467 18.5544 45.3467 18.6087C45.4467 18.6629 45.5577 18.6935 45.6713 18.6982C46.0604 18.7145 46.4418 18.5863 46.7425 18.3382" stroke="#E9B0A7" stroke-width="0.62" stroke-linecap="round" stroke-linejoin="round"/>
</g>
<g style="mix-blend-mode:multiply" opacity="0.3">
<g style="mix-blend-mode:multiply" opacity="0.3">
<path d="M53.6468 17.0275C53.9993 17.1736 54.3051 17.414 54.5306 17.7225C54.7561 18.031 54.8927 18.3958 54.9255 18.777C54.9677 19.2032 54.9013 19.6333 54.7326 20.0268C54.5639 20.4203 54.2983 20.7645 53.9609 21.027C53.5901 21.3132 53.1506 21.4961 52.6867 21.5573C52.2229 21.6185 51.7512 21.5559 51.3192 21.3758C50.9813 21.2098 50.692 20.9588 50.4797 20.6473C50.2674 20.3357 50.1392 19.9743 50.1077 19.5982C50.0964 19.1945 50.1683 18.7928 50.3189 18.4183C50.4694 18.0437 50.6954 17.7043 50.9827 17.4213C51.3645 17.15 51.8048 16.9729 52.2677 16.9045C52.7306 16.8361 53.2031 16.8782 53.6468 17.0275Z" fill="#E4A57F"/>
</g>
<g style="mix-blend-mode:multiply" opacity="0.3">
<path d="M40.3486 16.7294C40.7019 16.8743 41.0083 17.1145 41.234 17.4232C41.4597 17.732 41.5958 18.0973 41.6274 18.4788C41.6712 18.9052 41.6055 19.3358 41.4367 19.7296C41.2679 20.1234 41.0014 20.4674 40.6627 20.7289C40.2878 21.006 39.8463 21.1786 39.3833 21.229C38.9202 21.2793 38.4521 21.2058 38.0267 21.0158C37.687 20.8515 37.396 20.601 37.1826 20.2892C36.9691 19.9775 36.8405 19.6152 36.8096 19.2382C36.8014 18.8357 36.8747 18.4358 37.0251 18.0626C37.1755 17.6894 37.3998 17.3506 37.6845 17.0669C38.0707 16.8041 38.5133 16.6365 38.9762 16.5779C39.4392 16.5192 39.9095 16.5711 40.3486 16.7294Z" fill="#E4A57F"/>
</g>
</g>
<g style="mix-blend-mode:multiply">
<path d="M44.0952 20.3801C44.5874 20.723 45.1701 20.9114 45.7693 20.9214C46.3685 20.9314 46.9571 20.7626 47.4604 20.4364" stroke="#E9B0A7" stroke-width="0.62" stroke-linecap="round" stroke-linejoin="round"/>
</g>
<path d="M37.3143 7.73467C36.9666 7.57154 36.4114 6.49713 36.1534 6.77839C35.2167 7.80217 35.0316 10.5585 34.8297 11.9311C34.5842 13.3963 34.6938 14.8993 35.1494 16.3131C35.3457 16.8363 35.9402 18.0007 36.574 17.4382C37.2078 16.8756 37.578 7.8753 37.3143 7.73467Z" fill="#351D19"/>
<path d="M54.819 5.86143C55.1667 5.6983 55.5649 5.96268 55.8229 6.24957C56.754 7.27336 57.3709 10.5304 57.5448 11.9085C57.7841 13.3699 57.6667 14.8678 57.2026 16.2737C57.0063 16.8025 56.4062 17.9331 55.7781 17.3706C55.1499 16.8081 54.5778 5.97393 54.819 5.86143Z" fill="#351D19"/>
<path d="M55.0602 16.1331C55.621 14.2317 56.9054 13.2473 58.3861 13.3204C58.5988 13.3223 58.8089 13.3683 59.003 13.4555C59.1831 13.5567 59.3383 13.697 59.4573 13.8661C59.9706 14.663 60.1999 15.6107 60.1079 16.5549C60.1431 17.4239 59.9143 18.2832 59.4517 19.0188C59.2098 19.3524 58.8938 19.625 58.5288 19.8151C58.1638 20.0052 57.7597 20.1075 57.3485 20.1141C56.9372 20.1206 56.5301 20.0312 56.1592 19.8528C55.7884 19.6744 55.464 19.412 55.2116 19.0863L55.0602 16.1331Z" fill="#E4A57F"/>
<g style="mix-blend-mode:multiply">
<g style="mix-blend-mode:multiply">
<path d="M56.6754 18.6757C56.846 18.1565 57.1209 17.6779 57.4831 17.2694C57.8508 16.8576 58.3436 16.5789 58.8852 16.4763" stroke="#E9B0A7" stroke-width="0.62" stroke-linecap="round" stroke-linejoin="round"/>
</g>
<g style="mix-blend-mode:multiply">
<path d="M57.427 15.6887C57.3226 15.9282 57.2797 16.1901 57.3022 16.4505C57.3248 16.7109 57.412 16.9615 57.556 17.1794" stroke="#E9B0A7" stroke-width="0.62" stroke-linecap="round" stroke-linejoin="round"/>
</g>
</g>
<path d="M37.3312 15.5031C36.9162 13.5736 35.4804 12.4879 33.966 12.4711C33.7545 12.4582 33.5427 12.4888 33.3435 12.5611C33.1576 12.6507 32.9932 12.7792 32.8611 12.938C32.293 13.6976 31.9967 14.6269 32.0198 15.5762C31.9382 16.4375 32.116 17.3036 32.5302 18.0625C32.7478 18.4124 33.0434 18.7068 33.3939 18.9224C33.7443 19.138 34.1399 19.269 34.5495 19.305C34.9591 19.341 35.3714 19.281 35.7539 19.1298C36.1363 18.9786 36.4786 18.7404 36.7535 18.4338L37.3312 15.5031Z" fill="#E4A57F"/>
<g style="mix-blend-mode:multiply">
<g style="mix-blend-mode:multiply">
<path d="M35.3345 17.9163C35.2039 17.3872 34.9651 16.8911 34.6334 16.4594C34.2921 16.0266 33.8228 15.7135 33.293 15.5649" stroke="#E9B0A7" stroke-width="0.62" stroke-linecap="round" stroke-linejoin="round"/>
</g>
<g style="mix-blend-mode:multiply">
<path d="M34.7737 14.8899C34.8623 15.1351 34.8877 15.3988 34.8475 15.6564C34.8073 15.9141 34.7028 16.1574 34.5437 16.3637" stroke="#E9B0A7" stroke-width="0.62" stroke-linecap="round" stroke-linejoin="round"/>
</g>
</g>
<path d="M46.2321 0.753723L35.9571 5.81642L37.1854 11.7116C38.9476 11.3579 40.7389 11.1696 42.536 11.1491C42.605 10.2357 42.7456 9.32906 42.9567 8.43776C43.0088 9.35498 43.1401 10.2659 43.3493 11.1604C44.8243 11.1604 46.3723 11.1604 47.8362 11.2054C47.9272 10.0081 48.1878 8.82999 48.6102 7.70649C48.495 8.89042 48.5574 10.085 48.7953 11.2504C50.9436 11.2908 53.0838 11.528 55.1891 11.9591L56.1314 5.82204L46.2321 0.753723Z" fill="#351D19"/>
<g style="mix-blend-mode:multiply" opacity="0.3">
<path d="M49.8385 62.4399C55.5369 62.4399 48.4644 64.2231 45.531 64.2624C42.2219 64.3074 36.5908 62.5749 41.0441 62.5749C43.8541 62.558 46.8266 62.4399 49.8385 62.4399Z" fill="#FFBDC3"/>
</g>
<g style="mix-blend-mode:multiply" opacity="0.3">
<path d="M31.7338 60.4992C32.4965 59.1829 35.7383 62.2542 37.1854 61.0111C35.7327 59.8073 33.3771 57.4222 31.9301 56.2184C31.1726 55.6111 30.4568 54.9534 29.7876 54.2495C29.0528 51.1838 28.4247 48.8493 28.2003 48.5175C28.2003 48.5175 28.2003 48.585 28.2003 48.6243C28.9911 52.922 31.9693 72.1209 31.9693 72.1209C31.9693 72.1209 29.5071 86.0658 29.4679 86.6283H30.0287C30.8738 83.9394 31.5861 81.2168 32.1656 78.4605C32.7013 76.1545 33.0298 73.805 33.1471 71.4402C33.1471 70.3602 32.5358 66.8219 31.7057 62.8336C31.6328 61.9336 31.5655 60.7804 31.7338 60.4992Z" fill="#FFBDC3"/>
</g>
<g style="mix-blend-mode:multiply" opacity="0.3">
<path d="M62.3962 52.9445C62.3458 53.4226 62.2841 53.9458 62.228 54.4914C62.1887 54.8008 62.1551 55.1214 62.1158 55.4364C62.1158 55.2564 62.0709 55.0821 62.0485 54.9189C61.9924 54.5477 61.9588 54.2158 61.9251 53.9626L61.6615 55.6502C60.8483 61.1067 59.3507 71.7383 59.3507 71.7383L60.1247 75.946C60.2706 76.7448 60.4276 77.6335 60.5903 78.4942C61.2801 82.2968 62.0093 86.3414 62.0205 86.5833H60.1247C59.5639 84.5582 59.003 82.5106 58.5936 80.4461C58.459 79.7992 58.33 79.1523 58.2122 78.4998C58.0551 77.6448 57.9261 76.8123 57.8308 75.9179C57.7355 75.0234 57.6625 74.2584 57.6401 73.4203C57.6008 72.0758 58.6048 66.8838 59.7265 61.7817C59.7787 61.3427 59.7463 60.8978 59.6312 60.471C58.8684 59.1603 55.6266 62.2317 54.1796 60.9829C54.2525 60.9267 54.3254 60.8648 54.4039 60.7916C55.8622 59.5485 58.0608 57.3378 59.4517 56.1902C60.1617 55.6211 60.8378 55.0107 61.4764 54.362C61.7793 53.1526 62.0373 52.1457 62.256 51.465C62.3346 51.14 62.4493 50.8249 62.5982 50.5256C62.5756 51.335 62.5082 52.1426 62.3962 52.9445Z" fill="#FFBDC3"/>
</g>
<path d="M62.4972 53.7545C62.4187 54.0076 62.3233 54.2552 62.228 54.4914C62.1719 54.6377 62.1046 54.7783 62.0485 54.9189C61.9251 55.1777 61.8017 55.4252 61.6615 55.6783C61.4101 56.1508 61.1212 56.6023 60.7978 57.0284C59.5358 58.7159 56.3109 60.111 54.4039 60.8198C53.529 61.1517 52.9344 61.3373 52.9344 61.3429L54.1403 50.1825L61.9532 48.5568L63.0749 48.3206C63.0749 48.5512 63.1142 48.7706 63.1254 49.0012V49.035C63.2127 50.6337 62.9996 52.2347 62.4972 53.7545Z" fill="#FFBDC3"/>
<path d="M37.4434 61.3429C37.4434 61.3429 31.414 59.4922 29.5912 57.0284C27.7663 54.516 26.9441 51.41 27.2861 48.3206L36.4562 49.0462L37.4434 61.3429Z" fill="#FFBDC3"/>
<path d="M28.0432 43.6967C27.5812 45.3029 27.3157 46.9595 27.2524 48.63C27.0746 47.8146 26.7536 47.0375 26.3046 46.3349" stroke="#F27789" stroke-width="0.47" stroke-linecap="round" stroke-linejoin="round"/>
<path d="M62.357 43.6292C62.819 45.2354 63.0845 46.892 63.1478 48.5625C63.3257 47.7472 63.6466 46.97 64.0957 46.2674" stroke="#F27789" stroke-width="0.47" stroke-linecap="round" stroke-linejoin="round"/>
<path d="M63.1478 48.5624C63.1478 48.5624 63.1815 51.285 62.5869 52.9051" stroke="#F27789" stroke-width="0.47" stroke-linecap="round" stroke-linejoin="round"/>
<path d="M33.2369 186.684C33.2369 187.196 33.1808 187.708 33.1135 188.214C33.0973 188.702 32.9174 189.169 32.6031 189.542C32.3896 189.719 32.1275 189.826 31.8515 189.851C31.6653 189.871 31.478 189.88 31.2907 189.879C29.1257 189.879 27.7348 189.806 25.3343 189.609C24.91 189.609 24.4993 189.459 24.1733 189.187C24.1271 189.129 24.0841 189.069 24.0443 189.007L23.9377 188.805L23.8536 188.585C23.6668 187.85 23.6343 187.084 23.7582 186.335C23.79 186.031 23.8387 185.728 23.9041 185.43L27.073 185.503H27.2076C27.3702 185.503 27.5385 185.503 27.7067 185.503H27.8245H28.3461H28.4359H29.2884H29.6417H30.2026H31.3916C31.7949 185.476 32.1992 185.532 32.5807 185.666C32.7516 185.734 32.9025 185.845 33.0192 185.987C33.1359 186.13 33.2147 186.3 33.2481 186.481C33.2635 186.549 33.2596 186.619 33.2369 186.684Z" fill="#FF888E"/>
<g style="mix-blend-mode:multiply" opacity="0.2">
<path d="M33.2369 186.684C33.2369 187.196 33.1808 187.708 33.1135 188.214C33.0973 188.702 32.9174 189.169 32.6031 189.542C32.3896 189.719 32.1275 189.826 31.8515 189.851C31.6653 189.871 31.478 189.88 31.2907 189.879C29.1257 189.879 27.7348 189.806 25.3343 189.609C24.91 189.609 24.4993 189.459 24.1733 189.187C24.1271 189.129 24.0841 189.069 24.0443 189.007L23.9377 188.805L23.8536 188.585C23.651 187.854 23.592 187.089 23.6797 186.335C23.7012 186.028 23.7405 185.721 23.7975 185.418L27.073 185.508H27.2076C27.3702 185.508 27.5385 185.508 27.7067 185.508H27.8245H28.3461H28.4359H29.2884H29.6417H30.2026H31.3916C31.7949 185.482 32.1992 185.538 32.5807 185.671C32.7516 185.74 32.9025 185.85 33.0192 185.993C33.1359 186.136 33.2147 186.306 33.2481 186.487C33.2624 186.552 33.2585 186.621 33.2369 186.684Z" fill="#FF888E"/>
</g>
<path d="M24.7117 185.453L24.4762 186.797C24.4313 187.062 24.3808 187.326 24.3416 187.591C24.2417 188.278 24.1892 188.972 24.1845 189.666" stroke="#EF4D5D" stroke-width="0.22" stroke-linecap="round" stroke-linejoin="round"/>
<path d="M25.5643 185.446C25.4969 185.896 25.4353 186.346 25.3679 186.796C25.3287 187.061 25.2894 187.325 25.2558 187.59C25.1691 188.292 25.1185 188.997 25.1043 189.705" stroke="#EF4D5D" stroke-width="0.22" stroke-linecap="round" stroke-linejoin="round"/>
<path d="M26.4167 185.446C26.3607 185.896 26.3102 186.346 26.2597 186.796C26.2597 187.061 26.198 187.325 26.1756 187.59C26.1027 188.281 26.041 189.047 26.0241 189.744" stroke="#EF4D5D" stroke-width="0.22" stroke-linecap="round" stroke-linejoin="round"/>
<path d="M27.2637 185.441C27.23 185.896 27.1908 186.346 27.1515 186.796C27.1515 187.061 27.1066 187.325 27.0898 187.59C27.0337 188.282 26.9664 189.086 26.944 189.778" stroke="#EF4D5D" stroke-width="0.22" stroke-linecap="round" stroke-linejoin="round"/>
<path d="M28.1162 185.441C28.1162 185.891 28.0713 186.341 28.0433 186.791C28.0433 187.061 28.0433 187.325 28.004 187.59C27.9647 188.282 27.8918 189.12 27.8694 189.84" stroke="#EF4D5D" stroke-width="0.22" stroke-linecap="round" stroke-linejoin="round"/>
<path d="M28.9687 185.441L28.935 186.791V187.59C28.935 188.282 28.8341 189.159 28.806 189.84" stroke="#EF4D5D" stroke-width="0.22" stroke-linecap="round" stroke-linejoin="round"/>
<path d="M29.8212 185.435C29.8212 185.891 29.8212 186.341 29.8212 186.791C29.8212 187.061 29.8212 187.325 29.8212 187.59C29.8212 188.281 29.7315 189.198 29.6978 189.89" stroke="#EF4D5D" stroke-width="0.22" stroke-linecap="round" stroke-linejoin="round"/>
<path d="M30.6681 185.435L30.7186 186.791C30.7186 187.055 30.7186 187.325 30.7186 187.59C30.7186 188.281 30.6401 189.232 30.6008 189.924" stroke="#EF4D5D" stroke-width="0.22" stroke-linecap="round" stroke-linejoin="round"/>
<path d="M31.5206 185.43C31.5543 185.885 31.5823 186.335 31.6104 186.791C31.6104 187.055 31.6496 187.325 31.6608 187.59C31.6945 188.287 31.5935 189.277 31.5487 189.963" stroke="#EF4D5D" stroke-width="0.22" stroke-linecap="round" stroke-linejoin="round"/>
<path d="M32.3731 185.43C32.418 185.885 32.4629 186.335 32.5021 186.791C32.5021 187.055 32.5582 187.325 32.575 187.59C32.589 188.395 32.5553 189.201 32.4741 190.003" stroke="#EF4D5D" stroke-width="0.22" stroke-linecap="round" stroke-linejoin="round"/>
<path d="M67.8647 189.108C67.7916 189.27 67.6953 189.42 67.5787 189.553C67.2429 189.809 66.8279 189.939 66.4065 189.918C64.5893 189.98 63.3554 190.003 61.9196 189.963C61.454 189.963 60.9661 189.935 60.4276 189.913C59.9577 189.94 59.4937 189.796 59.1208 189.508C58.8296 189.118 58.6721 188.645 58.6721 188.158C58.6293 187.649 58.6143 187.138 58.6273 186.628C58.6245 186.6 58.6245 186.571 58.6273 186.543C58.661 186.355 58.7451 186.18 58.8706 186.036C58.9961 185.893 59.1582 185.786 59.3396 185.728C59.7403 185.613 60.1599 185.58 60.5735 185.632H60.9997H61.1792H61.4933H62.0542H62.357H62.9179C65.2511 185.7 68.0218 185.761 68.0218 185.761C68.0218 185.761 68.0554 185.953 68.0947 186.262C68.2477 187.216 68.1688 188.192 67.8647 189.108Z" fill="#FF888E"/>
<g style="mix-blend-mode:multiply" opacity="0.2">
<path d="M67.8647 189.108C67.7916 189.27 67.6953 189.42 67.5787 189.553C67.2429 189.809 66.8279 189.939 66.4065 189.918C64.5893 189.98 63.3554 190.003 61.9196 189.963C61.454 189.963 60.9661 189.935 60.4276 189.913C59.9577 189.94 59.4937 189.796 59.1208 189.508C58.8296 189.118 58.6721 188.645 58.6721 188.158C58.6293 187.649 58.6143 187.138 58.6273 186.628C58.6245 186.6 58.6245 186.571 58.6273 186.543C58.661 186.355 58.7451 186.18 58.8706 186.036C58.9961 185.893 59.1582 185.786 59.3396 185.728C59.7403 185.613 60.1599 185.58 60.5735 185.632H60.9997H61.1792H61.4933H62.0542H62.357H62.9179C65.2904 185.694 68.1283 185.745 68.1283 185.745C68.1539 185.912 68.1708 186.081 68.1788 186.251C68.3008 187.215 68.1931 188.194 67.8647 189.108Z" fill="#FF888E"/>
</g>
<path d="M67.2197 185.795C67.2758 186.245 67.3319 186.701 67.3936 187.151C67.4272 187.415 67.4609 187.685 67.4833 187.95C67.5534 188.641 67.5758 189.336 67.5506 190.031" stroke="#EF4D5D" stroke-width="0.22" stroke-linecap="round" stroke-linejoin="round"/>
<path d="M66.3672 185.75L66.5018 187.106C66.5018 187.376 66.5523 187.64 66.5747 187.905C66.628 188.61 66.6448 189.318 66.6252 190.025" stroke="#EF4D5D" stroke-width="0.22" stroke-linecap="round" stroke-linejoin="round"/>
<path d="M65.5203 185.711C65.5483 186.161 65.5764 186.611 65.61 187.066L65.6605 187.865C65.6942 188.557 65.7222 189.322 65.7054 190.02" stroke="#EF4D5D" stroke-width="0.22" stroke-linecap="round" stroke-linejoin="round"/>
<path d="M64.6678 185.666L64.7183 187.021C64.7183 187.286 64.7183 187.556 64.7183 187.82C64.7183 188.512 64.7688 189.317 64.7575 190.014" stroke="#EF4D5D" stroke-width="0.22" stroke-linecap="round" stroke-linejoin="round"/>
<path d="M63.8153 185.632C63.8153 186.088 63.8153 186.538 63.8153 186.988C63.8153 187.258 63.8153 187.522 63.8153 187.786C63.8153 188.478 63.8546 189.322 63.8153 190.037" stroke="#EF4D5D" stroke-width="0.22" stroke-linecap="round" stroke-linejoin="round"/>
<path d="M62.9684 185.581L62.9347 186.937V187.736C62.9347 188.422 62.9347 189.305 62.9347 189.986" stroke="#EF4D5D" stroke-width="0.22" stroke-linecap="round" stroke-linejoin="round"/>
<path d="M62.1158 185.536L62.0429 186.892C62.0429 187.156 62.0149 187.421 62.0037 187.691C61.97 188.383 62.0037 189.294 62.0037 189.992" stroke="#EF4D5D" stroke-width="0.22" stroke-linecap="round" stroke-linejoin="round"/>
<path d="M61.2689 185.497L61.1512 186.847C61.1512 187.111 61.1063 187.381 61.0895 187.646C61.0446 188.338 61.0895 189.288 61.0895 189.986" stroke="#EF4D5D" stroke-width="0.22" stroke-linecap="round" stroke-linejoin="round"/>
<path d="M60.4164 185.452L60.265 186.808C60.2313 187.072 60.2033 187.336 60.1752 187.601C60.1136 188.293 60.1752 189.288 60.1752 189.98" stroke="#EF4D5D" stroke-width="0.22" stroke-linecap="round" stroke-linejoin="round"/>
<path d="M59.5695 185.407C59.5022 185.863 59.4349 186.313 59.3732 186.763C59.334 187.027 59.2947 187.291 59.261 187.561C59.2134 188.363 59.2134 189.167 59.261 189.969" stroke="#EF4D5D" stroke-width="0.22" stroke-linecap="round" stroke-linejoin="round"/>
<path d="M68.3863 186.268L68.1956 186.301H68.1115C66.872 186.47 63.8489 186.583 61.3474 186.588C60.3098 186.588 59.3564 186.588 58.6609 186.532C58.4478 186.532 58.2627 186.504 58.1 186.487C56.6474 186.757 49.2552 136.873 47.309 115.317C46.7818 109.455 46.4565 105.754 46.4565 105.754C46.4565 105.754 46.0751 109.551 45.4806 115.57C43.3324 137.306 36.0861 186.11 33.8763 186.526C33.6856 186.526 33.4612 186.56 33.2257 186.583L32.4068 186.616C29.5154 186.709 26.6211 186.617 23.7414 186.341H23.6685L23.1806 186.285C20.9371 186.116 23.8648 122.849 24.7285 102.39C24.9198 97.8284 25.7254 93.3135 27.1234 88.9684L28.0433 86.0657L28.262 85.3851L30.9317 77.0654L31.2795 75.9854H32.6536L48.5878 75.946H57.8308H60.1135V75.9797L60.4669 76.981L62.4355 82.6625L64.1181 87.472C64.5612 88.7152 64.9538 89.964 65.2903 91.2297C66.356 95.2067 66.7374 99.3188 67.0122 103.436C68.7509 129.256 72.088 185.964 68.3863 186.268Z" fill="#FF888E"/>
<path d="M60.8483 78.5223C51.3136 78.5223 40.0963 78.6067 30.5223 78.6067" stroke="#EF4D5D" stroke-width="0.44" stroke-linecap="round" stroke-linejoin="round"/>
<path d="M45.991 78.753C45.991 78.753 45.5198 96.2362 46.4677 105.754" stroke="#EF4D5D" stroke-width="0.44" stroke-linecap="round" stroke-linejoin="round"/>
<path d="M30.7691 78.4942C30.8625 78.1716 31.0063 77.8659 31.1953 77.5886C31.4253 77.1104 31.3972 76.5423 31.6272 76.0641" stroke="#EF4D5D" stroke-width="0.22" stroke-linecap="round" stroke-linejoin="round"/>
<path d="M32.188 78.4942C32.2699 78.1742 32.4005 77.8687 32.575 77.5886C32.777 77.1104 32.7545 76.5423 32.962 76.0641" stroke="#EF4D5D" stroke-width="0.22" stroke-linecap="round" stroke-linejoin="round"/>
<path d="M33.6071 78.4942C33.6801 78.1775 33.7972 77.8726 33.9548 77.5886C34.1343 77.1104 34.1118 76.5423 34.3025 76.0641" stroke="#EF4D5D" stroke-width="0.22" stroke-linecap="round" stroke-linejoin="round"/>
<path d="M35.026 78.4942C35.0887 78.1808 35.1905 77.8765 35.3289 77.5886C35.4915 77.1104 35.4747 76.5423 35.6374 76.0641" stroke="#EF4D5D" stroke-width="0.22" stroke-linecap="round" stroke-linejoin="round"/>
<path d="M36.4562 78.4942C36.5083 78.183 36.5968 77.879 36.7198 77.5886C36.8601 77.1104 36.8432 76.5423 36.9835 76.0641" stroke="#EF4D5D" stroke-width="0.22" stroke-linecap="round" stroke-linejoin="round"/>
<path d="M37.864 78.4942C37.9064 78.1857 37.9797 77.8823 38.0828 77.5886C38.2061 77.1104 38.1893 76.5423 38.3127 76.0641" stroke="#EF4D5D" stroke-width="0.22" stroke-linecap="round" stroke-linejoin="round"/>
<path d="M39.2606 78.4942C39.3 78.1882 39.3619 77.8855 39.4456 77.5886C39.541 77.1104 39.5298 76.5423 39.6307 76.0641" stroke="#EF4D5D" stroke-width="0.22" stroke-linecap="round" stroke-linejoin="round"/>
<path d="M40.6964 78.4942C40.7259 78.1895 40.7746 77.8871 40.8422 77.5886C40.9151 77.1104 40.9095 76.5423 40.9824 76.0641" stroke="#EF4D5D" stroke-width="0.22" stroke-linecap="round" stroke-linejoin="round"/>
<path d="M42.1154 78.4942C42.1154 78.1567 42.1827 77.8923 42.2163 77.5886C42.2724 77.1104 42.2668 76.5423 42.3229 76.0641" stroke="#EF4D5D" stroke-width="0.22" stroke-linecap="round" stroke-linejoin="round"/>
<path d="M43.5344 78.4942C43.5344 78.1567 43.5736 77.8923 43.5961 77.5886C43.6297 77.1104 43.5961 76.5423 43.6578 76.0641" stroke="#EF4D5D" stroke-width="0.22" stroke-linecap="round" stroke-linejoin="round"/>
<path d="M44.9533 78.4942C44.9533 78.1567 44.9533 77.8923 44.9533 77.5886C44.9533 77.1104 44.9533 76.5423 44.9533 76.0641" stroke="#EF4D5D" stroke-width="0.22" stroke-linecap="round" stroke-linejoin="round"/>
<path d="M46.3723 78.4942C46.3723 78.1567 46.3723 77.8923 46.3723 77.5886C46.3723 77.1104 46.3723 76.5423 46.3723 76.0641" stroke="#EF4D5D" stroke-width="0.22" stroke-linecap="round" stroke-linejoin="round"/>
<path d="M47.7913 78.4942C47.7913 78.1567 47.7521 77.8923 47.7296 77.5886C47.696 77.1104 47.7296 76.5423 47.6679 76.0641" stroke="#EF4D5D" stroke-width="0.22" stroke-linecap="round" stroke-linejoin="round"/>
<path d="M49.2103 78.4942C49.2103 78.1567 49.143 77.8923 49.1094 77.5886C49.0533 77.1104 49.0589 76.5423 49.0084 76.0641" stroke="#EF4D5D" stroke-width="0.22" stroke-linecap="round" stroke-linejoin="round"/>
<path d="M50.6293 78.4942C50.5998 78.1895 50.5511 77.8871 50.4835 77.5886C50.4106 77.1104 50.4218 76.5423 50.3433 76.0641" stroke="#EF4D5D" stroke-width="0.22" stroke-linecap="round" stroke-linejoin="round"/>
<path d="M52.0483 78.4942C52.0115 78.1877 51.9496 77.8848 51.8632 77.5886C51.7678 77.1104 51.7791 76.5423 51.6781 76.0641" stroke="#EF4D5D" stroke-width="0.22" stroke-linecap="round" stroke-linejoin="round"/>
<path d="M53.4673 78.4942C53.4205 78.186 53.3454 77.8829 53.2429 77.5886C53.1252 77.1104 53.1364 76.5423 53.0186 76.0641" stroke="#EF4D5D" stroke-width="0.22" stroke-linecap="round" stroke-linejoin="round"/>
<path d="M54.8863 78.4942C54.8297 78.1834 54.7395 77.8797 54.6171 77.5886C54.4768 77.1104 54.4937 76.5423 54.3535 76.0641" stroke="#EF4D5D" stroke-width="0.22" stroke-linecap="round" stroke-linejoin="round"/>
<path d="M56.2996 78.4942C56.2369 78.1808 56.1352 77.8765 55.9968 77.5886C55.8341 77.1104 55.8566 76.5423 55.6883 76.0641" stroke="#EF4D5D" stroke-width="0.22" stroke-linecap="round" stroke-linejoin="round"/>
<path d="M57.7187 78.4942C57.6475 78.1777 57.5324 77.8729 57.3765 77.5886C57.1915 77.1104 57.2139 76.5423 57.0288 76.0641" stroke="#EF4D5D" stroke-width="0.22" stroke-linecap="round" stroke-linejoin="round"/>
<path d="M59.1376 78.4942C59.0558 78.1742 58.9252 77.8687 58.7506 77.5886C58.5487 77.1104 58.5712 76.5423 58.3636 76.0641" stroke="#EF4D5D" stroke-width="0.22" stroke-linecap="round" stroke-linejoin="round"/>
<path d="M60.5734 78.4942C60.4824 78.1707 60.3383 77.8647 60.1472 77.5886C59.9228 77.1104 59.9453 76.5423 59.7153 76.0641" stroke="#EF4D5D" stroke-width="0.22" stroke-linecap="round" stroke-linejoin="round"/>
<g style="mix-blend-mode:multiply" opacity="0.2">
<path d="M61.942 189.963C61.4765 189.963 60.9885 189.935 60.4501 189.913C59.9801 189.94 59.5161 189.796 59.1433 189.508C58.852 189.118 58.6946 188.645 58.6946 188.158C58.6517 187.649 58.6367 187.138 58.6497 186.628C58.6469 186.6 58.6469 186.571 58.6497 186.543C58.4422 186.543 58.2571 186.515 58.0888 186.498C56.6474 186.757 49.2552 136.873 47.3146 115.317C46.7537 109.455 46.4565 105.754 46.4565 105.754C46.4565 105.754 46.0751 109.551 45.4806 115.57C43.3325 137.3 36.0805 186.11 33.8707 186.526C33.6856 186.526 33.4612 186.56 33.2257 186.583C33.2315 186.62 33.2315 186.658 33.2257 186.695C33.2257 187.207 33.1696 187.719 33.1023 188.225C33.0861 188.713 32.9062 189.181 32.5919 189.553C32.3784 189.73 32.1163 189.838 31.8403 189.862C31.9974 188.945 32.1825 187.854 32.4012 186.616C32.4517 186.335 32.4965 186.054 32.547 185.761C36.1141 164.718 46.0919 107.38 46.4172 105.417C46.4161 105.4 46.4161 105.383 46.4172 105.366C47.1127 107.526 57.6794 165.809 61.1792 185.632C61.2409 185.97 61.297 186.29 61.3475 186.6C61.5886 187.966 61.7905 189.097 61.942 189.963Z" fill="#FF888E"/>
</g>
<path d="M53.8431 59.9141L77.5733 66.2031C80.9833 67.1425 83.4511 69.6739 83.1819 71.9746C82.7276 75.541 79.5419 77.8585 74.825 76.1316L52.3007 64.5662L53.8431 59.9141Z" fill="#E4A57F"/>
<path d="M60.1304 68.577L73.5912 75.5916C73.5912 75.5916 78.3697 78.0892 81.4433 75.4622" stroke="#D18D5E" stroke-width="0.29" stroke-miterlimit="10"/>
<path d="M51.179 58.7216C50.8537 58.7216 46.507 59.1322 45.4301 60.0322C43.8987 61.29 42.7358 62.9404 42.0649 64.808C41.8069 65.5674 44.1513 67.7725 44.1906 66.9119C44.2201 66.6715 44.3218 66.4459 44.4822 66.265C45.4556 65.2418 46.7434 64.5762 48.1391 64.3749C48.6437 64.3189 49.1545 64.3726 49.6366 64.5324C49.9955 64.6561 51.6613 58.7384 51.179 58.7216Z" fill="#E4A57F"/>
<path d="M43.8989 69.8651C44.2589 69.5755 44.5229 69.1833 44.6561 68.7401C45.0487 67.7501 44.4934 66.3831 44.6897 65.365C44.8636 64.4312 45.9909 63.7112 46.6752 63.0586C47.3932 62.4407 48.1983 61.9327 49.0645 61.5511C49.7354 61.2702 50.3282 60.8301 50.7919 60.2685C50.9097 60.0941 51.5323 60.3698 50.3825 59.2897L46.664 60.1785C45.8393 60.3451 45.0449 60.6372 44.3083 61.0448C43.278 62.1527 42.4739 63.4522 41.9415 64.8699C41.7788 65.2862 41.9415 66.5575 42.0929 67.7894C42.1657 68.3336 42.2935 68.8688 42.4743 69.387C42.5249 69.5195 42.6047 69.6389 42.7076 69.7363C42.8105 69.8337 42.934 69.9065 43.0688 69.9495C43.204 70.0021 43.3497 70.0218 43.494 70.0072C43.6382 69.9925 43.777 69.9438 43.8989 69.8651Z" fill="#E4A57F"/>
<g style="mix-blend-mode:multiply" opacity="0.2">
<path d="M43.0857 69.972C43.2355 69.7664 43.3271 69.5241 43.3508 69.2706C43.3745 69.0171 43.3294 68.7619 43.2203 68.532C43.0971 68.3349 42.9333 68.1667 42.7398 68.0386C42.5462 67.9105 42.3276 67.8255 42.0985 67.7894C42.1713 68.3335 42.2991 68.8688 42.4799 69.387C42.5288 69.5249 42.609 69.6495 42.7141 69.751C42.8192 69.8525 42.9464 69.9282 43.0857 69.972Z" fill="#D3835B"/>
</g>
<path d="M44.2186 64.8475C44.471 63.953 45.3852 62.3386 45.9012 62.0349C45.6993 63.2443 45.4469 64.0599 45.245 65.275L44.9421 67.0919C44.9085 67.2944 44.9141 68.9876 44.6168 68.847C44.4654 68.7738 44.3252 67.6882 44.3027 67.5307C44.2579 67.1932 44.0223 65.5281 44.2186 64.8475Z" fill="#D3835B"/>
<path d="M45.991 69.5782C46.3146 69.3155 46.5513 68.9605 46.6696 68.5601C47.0229 67.6713 46.5238 66.445 46.7033 65.5C46.8603 64.6618 47.8755 64.0149 48.4868 63.4299C49.1344 62.8756 49.8578 62.4172 50.6349 62.0686C51.1958 61.7761 50.7864 61.5567 51.1565 61.0223C51.5267 60.4879 51.9754 59.4641 51.4987 59.0197C50.3769 59.2841 49.631 60.7073 48.5149 60.9492C47.6501 61.1493 46.8149 61.4613 46.0302 61.8773C45.604 62.2317 44.7178 64.0149 44.3476 64.7687C44.293 64.8687 44.2641 64.9809 44.2635 65.0949C44.2452 65.7896 44.2696 66.4847 44.3364 67.1763C44.3917 67.8446 44.5273 68.5038 44.7402 69.1395C44.8118 69.3417 44.9557 69.5101 45.144 69.612C45.275 69.6838 45.423 69.7186 45.5722 69.7126C45.7213 69.7067 45.8661 69.6602 45.991 69.5782Z" fill="#E4A57F"/>
<g style="mix-blend-mode:multiply" opacity="0.2">
<path d="M45.144 69.6177C45.3525 69.4367 45.5046 69.1994 45.5822 68.934C45.6598 68.6687 45.6595 68.3866 45.5815 68.1214C45.4734 67.8697 45.3017 67.6506 45.0833 67.4859C44.8649 67.3211 44.6075 67.2164 44.3364 67.1819C44.3917 67.8503 44.5273 68.5094 44.7402 69.1451C44.8118 69.3474 44.9557 69.5158 45.144 69.6177Z" fill="#D3835B"/>
</g>
<path d="M46.2658 64.448C46.5181 63.5592 47.3875 62.2598 47.8137 61.4329C47.6118 62.6423 47.4884 63.683 47.2865 64.8643C47.1912 65.4718 47.0902 66.0737 46.9893 66.6812C46.9556 66.8894 46.9893 68.5826 46.6696 68.4419C46.5125 68.3688 46.3667 67.2775 46.3499 67.1256C46.2004 66.2411 46.1721 65.3402 46.2658 64.448Z" fill="#D3835B"/>
<path d="M47.8586 68.3238C48.1173 68.1 48.311 67.8105 48.4195 67.4857C48.728 66.7319 48.3073 65.6968 48.4644 64.9037C48.6102 64.1949 50.7078 59.841 49.76 60.0885C49.3286 60.1601 48.9185 60.3273 48.5597 60.5779C48.1952 60.8817 46.7762 63.5986 46.4228 64.2793C46.3701 64.3821 46.3414 64.4956 46.3387 64.6112C46.3157 65.3195 46.3476 66.0285 46.434 66.7319C46.487 67.3396 46.6606 67.9306 46.9444 68.4701C46.963 68.5014 46.9882 68.5282 47.0182 68.5486C47.0483 68.569 47.0824 68.5826 47.1183 68.5882C47.3888 68.5925 47.6517 68.4986 47.8586 68.3238Z" fill="#E4A57F"/>
<g style="mix-blend-mode:multiply" opacity="0.2">
<path d="M47.1127 68.5882L47.18 68.5151C47.3195 68.3461 47.4117 68.143 47.4472 67.9265C47.4827 67.7101 47.4601 67.488 47.3819 67.2832C47.291 67.1096 47.1536 66.965 46.9851 66.8656C46.8167 66.7662 46.6238 66.716 46.4284 66.7206C46.4814 67.3283 46.6549 67.9193 46.9388 68.4588C46.9561 68.4922 46.9807 68.5212 47.0109 68.5437C47.041 68.5661 47.0758 68.5813 47.1127 68.5882Z" fill="#D3835B"/>
</g>
<path d="M47.9876 63.8124C48.2568 62.9292 49.2888 61.5623 49.7263 60.7692C49.4963 61.9786 49.3169 62.7942 49.0869 64.0037L48.7504 65.8093C48.7111 66.0175 48.6887 67.7107 48.3914 67.5644C48.2344 67.4857 48.1166 66.3944 48.0998 66.2425C48.0661 65.9106 47.7801 64.4931 47.9876 63.8124Z" fill="#D3835B"/>
<path d="M49.5805 67.7613C49.8375 67.5383 50.031 67.2511 50.1413 66.9288C50.4498 66.175 50.1021 64.8081 50.2591 64.0149C50.3993 63.3061 50.3601 61.9561 51.4986 62.3273C57.2139 64.1837 55.7724 58.9522 52.5026 58.6147C51.4485 58.5528 50.3911 58.6533 49.3673 58.9128C49.3673 58.9128 48.498 63.0417 48.1447 63.7224C48.0928 63.8258 48.0623 63.9387 48.0549 64.0543C48.0316 64.7628 48.0654 65.472 48.1559 66.175C48.2096 66.7826 48.3831 67.3734 48.6663 67.9132C48.6836 67.9443 48.7077 67.9711 48.7369 67.9916C48.766 68.0121 48.7994 68.0256 48.8345 68.0313C49.1084 68.0398 49.3751 67.9432 49.5805 67.7613Z" fill="#E4A57F"/>
<g style="mix-blend-mode:multiply" opacity="0.2">
<path d="M48.8289 68.0313C48.8561 68.0079 48.8805 67.9814 48.9018 67.9526C49.0403 67.7842 49.1319 67.582 49.1674 67.3667C49.2029 67.1513 49.1809 66.9304 49.1037 66.7263C49.0134 66.5523 48.8761 66.4073 48.7075 66.3078C48.5389 66.2084 48.3458 66.1584 48.1503 66.1637C48.204 66.7713 48.3775 67.3621 48.6607 67.9019C48.6767 67.9352 48.7002 67.9642 48.7294 67.9867C48.7587 68.0091 48.7927 68.0244 48.8289 68.0313Z" fill="#D3835B"/>
</g>
<g style="mix-blend-mode:multiply" opacity="0.3">
<path d="M76.373 68.0257C76.4235 70.9564 74.2305 74.6185 72.6601 75.0403C67.4553 76.441 64.6734 67.4519 63.1927 58.5472L62.6318 58.9072C62.6318 58.9072 62.3402 56.9947 62.1214 55.4365C62.1214 55.2565 62.0766 55.0821 62.0541 54.919C61.9307 55.1777 61.8073 55.4252 61.6671 55.6784C60.8539 61.1348 59.3564 71.7665 59.3564 71.7665L60.1304 75.9741L60.4837 76.9754L62.4523 82.6569L64.1349 87.4664C64.578 88.7096 64.9706 89.9584 65.3071 91.2241C62.8285 89.8699 60.4567 88.3279 58.2122 86.6114C55.8298 84.817 53.6734 82.7392 51.7903 80.4237C51.3023 79.8162 50.8312 79.1917 50.3769 78.5674C49.76 77.7179 49.1654 76.8798 48.6046 75.9854C46.1377 72.1734 44.022 68.1441 42.2836 63.9474C42.0873 63.4862 41.9022 63.0249 41.7228 62.5749C39.3807 56.7709 37.6477 50.7382 36.5516 44.5742L46.0526 38.814L47.9428 37.6889C49.143 36.9576 50.3769 36.2826 51.6332 35.6695C53.4236 34.7861 55.269 34.0195 57.1578 33.3744C58.967 33.548 60.7486 33.9408 62.4636 34.5444C65.2333 35.3746 67.5725 37.2527 68.9864 39.7815C71.0641 43.5144 72.8041 47.4264 74.1856 51.4707L72.6264 52.4664C74.7914 58.9804 76.3225 65.4325 76.373 68.0257Z" fill="#FFBDC3"/>
</g>
<path d="M95.908 33.8075L82.7164 31.7768C71.6823 30.0816 60.405 32.3274 50.8536 38.122L39.44 45.0579C39.44 45.0579 42.5528 65.6124 54.6844 80.8962C63.0637 91.4434 78.9698 96.5061 78.981 96.5061C78.981 96.5061 91.7632 85.7282 95.4873 72.7677C100.877 54.002 95.908 33.8075 95.908 33.8075Z" fill="#8D90A9"/>
<g style="mix-blend-mode:multiply" opacity="0.3">
<path d="M95.908 33.8075L82.7164 31.7768C71.6823 30.0816 60.405 32.3274 50.8536 38.122L39.44 45.0579C39.44 45.0579 42.5528 65.6124 54.6844 80.8962C63.0637 91.4434 78.9698 96.5061 78.981 96.5061C78.981 96.5061 91.7632 85.7282 95.4873 72.7677C100.877 54.002 95.908 33.8075 95.908 33.8075Z" fill="#3ABBC7"/>
</g>
<path d="M78.1005 92.0622C73.7594 90.3746 63.5517 85.8351 57.713 78.4773C48.7953 67.2494 44.9814 52.7307 43.7475 46.9761L52.856 41.4465C61.6319 36.1158 71.9977 34.0508 82.1387 35.6132L92.6662 37.2333C93.7206 43.0216 95.7229 57.9059 91.7632 71.6933C89.1776 80.733 81.4713 88.839 78.1005 92.0622Z" fill="#040C5E"/>
<path opacity="0.7" d="M42.351 46.1267C42.3814 46.2773 42.3665 46.4336 42.3083 46.5758C42.25 46.7179 42.151 46.8396 42.0238 46.9252C41.8966 47.0109 41.7469 47.0568 41.5936 47.057C41.4404 47.0573 41.2905 47.0119 41.163 46.9266C41.0355 46.8414 40.9361 46.7201 40.8774 46.5781C40.8187 46.4362 40.8033 46.2799 40.8333 46.1292C40.8632 45.9785 40.937 45.84 41.0455 45.7314C41.1539 45.6228 41.292 45.549 41.4424 45.5192C41.6431 45.4794 41.8514 45.521 42.0217 45.6348C42.192 45.7487 42.3103 45.9255 42.351 46.1267Z" fill="white"/>
<path opacity="0.7" d="M95.0779 35.6357C95.1072 35.7852 95.0916 35.9401 95.0331 36.0808C94.9747 36.2214 94.8759 36.3415 94.7494 36.4259C94.6229 36.5103 94.4743 36.5552 94.3224 36.5549C94.1705 36.5546 94.022 36.5091 93.8958 36.4242C93.7697 36.3393 93.6714 36.2188 93.6135 36.0779C93.5556 35.9371 93.5406 35.7821 93.5705 35.6327C93.6004 35.4833 93.6737 35.3461 93.7813 35.2385C93.8889 35.1309 94.0258 35.0577 94.1749 35.0282C94.274 35.0085 94.3759 35.0087 94.4749 35.0286C94.574 35.0485 94.6681 35.0878 94.752 35.1442C94.8358 35.2006 94.9078 35.2731 94.9637 35.3574C95.0196 35.4418 95.0584 35.5363 95.0779 35.6357Z" fill="white"/>
<path opacity="0.7" d="M79.3512 93.7723C79.3816 93.9229 79.3668 94.0792 79.3085 94.2214C79.2503 94.3635 79.1513 94.4852 79.0241 94.5708C78.8968 94.6565 78.7471 94.7024 78.5939 94.7026C78.4407 94.7029 78.2908 94.6575 78.1633 94.5722C78.0358 94.487 77.9364 94.3657 77.8777 94.2237C77.819 94.0818 77.8036 93.9255 77.8335 93.7748C77.8634 93.6241 77.9373 93.4856 78.0457 93.377C78.1542 93.2684 78.2923 93.1946 78.4426 93.1648C78.6434 93.125 78.8517 93.1666 79.022 93.2804C79.1922 93.3943 79.3106 93.5711 79.3512 93.7723Z" fill="white"/>
<g opacity="0.7">
<g style="mix-blend-mode:screen" opacity="0.7">
<path d="M52.0146 73.9209C57.347 82.0856 64.9752 88.4795 73.9333 92.2929" stroke="black" stroke-width="1.14" stroke-linecap="round" stroke-linejoin="round"/>
</g>
</g>
<g opacity="0.7">
<g style="mix-blend-mode:screen" opacity="0.7">
<path d="M50.0909 70.7145C50.3657 71.2096 50.6517 71.7046 50.9378 72.194" stroke="#3ABBC7" stroke-width="1.14" stroke-linecap="round" stroke-linejoin="round"/>
</g>
</g>
<g opacity="0.7">
<g style="mix-blend-mode:screen" opacity="0.7">
<path d="M42.2724 49.62C43.955 55.9709 45.9012 62.3274 48.7841 68.1832C48.9692 68.5713 49.1655 68.9539 49.3449 69.3364" stroke="#3ABBC7" stroke-width="1.14" stroke-linecap="round" stroke-linejoin="round"/>
</g>
</g>
<g opacity="0.7">
<g style="mix-blend-mode:screen" opacity="0.7">
<path d="M95.9865 52.5789C96.0201 53.5858 95.9865 53.8108 95.9865 54.8289" stroke="#3ABBC7" stroke-width="1.14" stroke-linecap="round" stroke-linejoin="round"/>
</g>
</g>
<g opacity="0.7">
<g style="mix-blend-mode:screen" opacity="0.7">
<path d="M94.7863 39.1627C95.3135 43.1004 95.7509 47.0999 95.908 51.0825" stroke="#3ABBC7" stroke-width="1.14" stroke-linecap="round" stroke-linejoin="round"/>
</g>
</g>
</g>
<defs>
<clipPath id="clip0">
<rect width="98" height="214" fill="white"/>
</clipPath>
</defs>
</svg>
